<mxfile host="app.diagrams.net" agent="Mozilla/5.0 (Windows NT 10.0; Win64; x64) AppleWebKit/537.36 (KHTML, like Gecko) Chrome/137.0.0.0 Safari/537.36" version="27.1.6">
  <diagram id="6a731a19-8d31-9384-78a2-239565b7b9f0" name="Page-1">
    <mxGraphModel dx="2847" dy="876" grid="1" gridSize="10" guides="1" tooltips="1" connect="1" arrows="1" fold="1" page="1" pageScale="1" pageWidth="1169" pageHeight="827" background="none" math="0" shadow="0">
      <root>
        <mxCell id="0" />
        <mxCell id="1" parent="0" />
        <mxCell id="1350" value="Внутренние данные" style="ellipse;whiteSpace=wrap;html=1;shadow=0;fontFamily=Helvetica;fontSize=20;fontColor=#FFFFFF;align=center;strokeWidth=3;fillColor=#1699D3;strokeColor=none;" parent="1" vertex="1">
          <mxGeometry x="493.5" y="500" width="126.5" height="121.5" as="geometry" />
        </mxCell>
        <mxCell id="1351" value="Публичные данные" style="ellipse;whiteSpace=wrap;html=1;shadow=0;fontFamily=Helvetica;fontSize=20;fontColor=#FFFFFF;align=center;strokeWidth=3;fillColor=#F08705;strokeColor=none;gradientColor=none;" parent="1" vertex="1">
          <mxGeometry x="1550" y="461.5" width="120" height="120" as="geometry" />
        </mxCell>
        <mxCell id="1356" value="Секретные&lt;div&gt;данные&lt;/div&gt;" style="ellipse;whiteSpace=wrap;html=1;shadow=0;fontFamily=Helvetica;fontSize=20;fontColor=#FFFFFF;align=center;strokeWidth=3;fillColor=#E85642;strokeColor=none;" parent="1" vertex="1">
          <mxGeometry x="1560" y="1212.5" width="120" height="120" as="geometry" />
        </mxCell>
        <mxCell id="1359" style="endArrow=none;strokeWidth=6;strokeColor=#1699D3;html=1;" parent="1" source="1515" target="1350" edge="1">
          <mxGeometry relative="1" as="geometry" />
        </mxCell>
        <mxCell id="1360" style="endArrow=none;strokeWidth=6;strokeColor=#f08705;html=1;" parent="1" source="1515" target="1351" edge="1">
          <mxGeometry relative="1" as="geometry" />
        </mxCell>
        <mxCell id="1363" style="endArrow=none;strokeWidth=6;strokeColor=#736CA8;html=1;" parent="1" source="1515" target="1516" edge="1">
          <mxGeometry relative="1" as="geometry" />
        </mxCell>
        <mxCell id="1366" value="" style="edgeStyle=none;endArrow=none;strokeWidth=6;strokeColor=#E85642;html=1;" parent="1" source="1515" target="1356" edge="1">
          <mxGeometry x="181" y="226.5" width="100" height="100" as="geometry">
            <mxPoint x="181" y="326.5" as="sourcePoint" />
            <mxPoint x="281" y="226.5" as="targetPoint" />
          </mxGeometry>
        </mxCell>
        <mxCell id="1369" value="Публичная оферта,&lt;div&gt;Согласие на обработку&amp;nbsp;&lt;/div&gt;&lt;div&gt;персональных данных&lt;/div&gt;" style="rounded=1;fillColor=#64BBE2;strokeColor=none;strokeWidth=3;shadow=0;html=1;fontColor=#FFFFFF;align=left;" parent="1" vertex="1">
          <mxGeometry x="150" y="310" width="180" height="50" as="geometry" />
        </mxCell>
        <mxCell id="1381" value="" style="edgeStyle=none;endArrow=none;strokeWidth=3;strokeColor=#64BBE2;html=1;" parent="1" source="1350" target="1369" edge="1">
          <mxGeometry x="-221.5" y="56.5" width="100" height="100" as="geometry">
            <mxPoint x="-251.5" y="386.5" as="sourcePoint" />
            <mxPoint x="-151.5" y="286.5" as="targetPoint" />
          </mxGeometry>
        </mxCell>
        <mxCell id="1389" value="&lt;div&gt;&lt;b&gt;Риск утечки базы&amp;nbsp;&lt;span style=&quot;background-color: transparent; color: light-dark(rgb(0, 0, 0), rgb(255, 255, 255));&quot;&gt;недвижимости&amp;nbsp;&lt;/span&gt;&lt;/b&gt;&lt;b style=&quot;background-color: transparent; color: light-dark(rgb(0, 0, 0), rgb(255, 255, 255));&quot;&gt;(утечка по ISO)&lt;/b&gt;&lt;/div&gt;&lt;div&gt;Качественная оценка - значительный:&lt;/div&gt;&lt;div&gt;- ощутимый вред финансовым интересам компании&lt;/div&gt;&lt;div&gt;Вероятность - средняя:&amp;nbsp;&lt;/div&gt;&lt;div&gt;- есть заинтересованность&amp;nbsp;&lt;span style=&quot;background-color: transparent; color: light-dark(rgb(0, 0, 0), rgb(255, 255, 255));&quot;&gt;злоумышленников&lt;/span&gt;&lt;/div&gt;&lt;div&gt;- технически сложно&lt;/div&gt;&lt;div&gt;-&amp;nbsp;&lt;span style=&quot;background-color: transparent; color: light-dark(rgb(0, 0, 0), rgb(255, 255, 255));&quot;&gt;несанкционированный доступ&lt;/span&gt;&lt;/div&gt;&lt;div&gt;&lt;div style=&quot;padding-top: 0px;&quot;&gt;из-за проблем с авторизацией&lt;/div&gt;&lt;/div&gt;" style="rounded=1;fillColor=#dae8fc;strokeColor=#6c8ebf;strokeWidth=3;shadow=0;html=1;align=left;" parent="1" vertex="1">
          <mxGeometry x="-381.25" y="520" width="290" height="121.5" as="geometry" />
        </mxCell>
        <mxCell id="1390" value="&lt;div&gt;&lt;span style=&quot;background-color: transparent; color: light-dark(rgb(255, 255, 255), rgb(18, 18, 18));&quot;&gt;&lt;b&gt;сlient-mart-estate-app&lt;/b&gt;&lt;/span&gt;&lt;/div&gt;&lt;b&gt;Объект&amp;nbsp;&lt;/b&gt;&lt;span style=&quot;background-color: transparent; color: light-dark(rgb(255, 255, 255), rgb(18, 18, 18));&quot;&gt;&lt;b&gt;недвижимости&lt;/b&gt;:&amp;nbsp;&lt;/span&gt;&lt;div&gt;&lt;span style=&quot;background-color: transparent; color: light-dark(rgb(255, 255, 255), rgb(18, 18, 18));&quot;&gt;- адрес&amp;nbsp;&lt;/span&gt;&lt;/div&gt;&lt;div&gt;&lt;span style=&quot;background-color: transparent; color: light-dark(rgb(255, 255, 255), rgb(18, 18, 18));&quot;&gt;- фото&amp;nbsp;&lt;/span&gt;&lt;/div&gt;&lt;div&gt;&lt;span style=&quot;background-color: transparent; color: light-dark(rgb(255, 255, 255), rgb(18, 18, 18));&quot;&gt;- цена&lt;/span&gt;&lt;/div&gt;&lt;div&gt;&lt;span style=&quot;background-color: transparent; color: light-dark(rgb(255, 255, 255), rgb(18, 18, 18));&quot;&gt;- история цены&lt;/span&gt;&lt;/div&gt;&lt;div&gt;&lt;span style=&quot;background-color: transparent; color: light-dark(rgb(255, 255, 255), rgb(18, 18, 18));&quot;&gt;- описание&lt;/span&gt;&lt;/div&gt;" style="rounded=1;fillColor=#64BBE2;strokeColor=none;strokeWidth=3;shadow=0;html=1;fontColor=#FFFFFF;align=left;" parent="1" vertex="1">
          <mxGeometry x="159.75" y="600" width="180.25" height="110" as="geometry" />
        </mxCell>
        <mxCell id="1392" value="&lt;b style=&quot;&quot;&gt;client-mart-app&lt;/b&gt;&lt;div&gt;&lt;b&gt;Маркетинговые материалы&lt;/b&gt;&lt;/div&gt;" style="rounded=1;fillColor=#f5af58;strokeColor=none;strokeWidth=3;shadow=0;html=1;fontColor=#FFFFFF;align=left;" parent="1" vertex="1">
          <mxGeometry x="1770" y="586.12" width="180" height="50" as="geometry" />
        </mxCell>
        <mxCell id="1401" value="" style="edgeStyle=none;endArrow=none;strokeWidth=3;strokeColor=#64BBE2;html=1;" parent="1" target="1389" edge="1">
          <mxGeometry x="3.5" y="21.5" width="100" height="100" as="geometry">
            <mxPoint x="160" y="610" as="sourcePoint" />
            <mxPoint x="-295" y="589.8285714285712" as="targetPoint" />
          </mxGeometry>
        </mxCell>
        <mxCell id="1402" value="" style="edgeStyle=none;endArrow=none;strokeWidth=3;strokeColor=#64BBE2;html=1;" parent="1" source="1350" target="1390" edge="1">
          <mxGeometry x="3.5" y="21.5" width="100" height="100" as="geometry">
            <mxPoint x="130" y="421.5" as="sourcePoint" />
            <mxPoint x="230" y="321.5" as="targetPoint" />
          </mxGeometry>
        </mxCell>
        <mxCell id="1403" value="" style="edgeStyle=none;endArrow=none;strokeWidth=3;strokeColor=#F5AF58;html=1;exitX=1;exitY=0.5;exitDx=0;exitDy=0;entryX=0;entryY=0.5;entryDx=0;entryDy=0;" parent="1" source="1392" target="ozscDCPrVm2I_ryFBJd1-1619" edge="1">
          <mxGeometry x="3.5" y="21.5" width="100" height="100" as="geometry">
            <mxPoint x="130" y="421.5" as="sourcePoint" />
            <mxPoint x="2065" y="693.2881818181818" as="targetPoint" />
          </mxGeometry>
        </mxCell>
        <mxCell id="1404" value="" style="edgeStyle=none;endArrow=none;strokeWidth=3;strokeColor=#F5AF58;html=1;entryX=0;entryY=0.5;entryDx=0;entryDy=0;" parent="1" source="1351" target="1392" edge="1">
          <mxGeometry x="3.5" y="21.5" width="100" height="100" as="geometry">
            <mxPoint x="130" y="421.5" as="sourcePoint" />
            <mxPoint x="230" y="321.5" as="targetPoint" />
          </mxGeometry>
        </mxCell>
        <mxCell id="1490" value="&lt;div style=&quot;color: rgb(0, 0, 0);&quot;&gt;&lt;b&gt;Риск утечки&lt;span style=&quot;background-color: transparent; color: light-dark(rgb(0, 0, 0), rgb(255, 255, 255));&quot;&gt;&amp;nbsp;&lt;/span&gt;&lt;/b&gt;&lt;b style=&quot;background-color: transparent; color: light-dark(rgb(0, 0, 0), rgb(255, 255, 255));&quot;&gt;(утечка по ISO)&lt;/b&gt;&lt;/div&gt;&lt;div style=&quot;color: rgb(0, 0, 0);&quot;&gt;Качественная оценка - критический&lt;/div&gt;&lt;div style=&quot;color: rgb(0, 0, 0);&quot;&gt;- может повлечь юридические последствия&amp;nbsp;&lt;/div&gt;&lt;div style=&quot;color: rgb(0, 0, 0);&quot;&gt;Вероятность - низкая:&amp;nbsp;&lt;/div&gt;&lt;div style=&quot;color: rgb(0, 0, 0);&quot;&gt;- технически сложно&lt;/div&gt;" style="rounded=1;fillColor=#f8cecc;strokeColor=#b85450;strokeWidth=3;shadow=0;html=1;align=left;" parent="1" vertex="1">
          <mxGeometry x="2010" y="805" width="290" height="65" as="geometry" />
        </mxCell>
        <mxCell id="1492" value="Petunia" style="rounded=1;fillColor=#f08e81;strokeColor=none;strokeWidth=3;shadow=0;html=1;fontColor=#FFFFFF;" parent="1" vertex="1">
          <mxGeometry x="1105" y="825" width="120" height="40" as="geometry" />
        </mxCell>
        <mxCell id="1493" value="Cactus" style="rounded=1;fillColor=#f08e81;strokeColor=none;strokeWidth=3;shadow=0;html=1;fontColor=#FFFFFF;" parent="1" vertex="1">
          <mxGeometry x="1050" y="885" width="120" height="40" as="geometry" />
        </mxCell>
        <mxCell id="1499" value="Платежные данные&amp;nbsp;&lt;div&gt;пользователя без сертификации&amp;nbsp;&lt;/div&gt;&lt;div&gt;запрещено хранить в&amp;nbsp;&lt;/div&gt;&lt;div&gt;рамках системы, хранение&amp;nbsp;&lt;/div&gt;&lt;div&gt;делегировано платежной системе&lt;/div&gt;" style="rounded=1;fillColor=#f08e81;strokeColor=none;strokeWidth=3;shadow=0;html=1;fontColor=#FFFFFF;align=left;" parent="1" vertex="1">
          <mxGeometry x="1780" y="1790" width="200" height="80" as="geometry" />
        </mxCell>
        <mxCell id="1500" value="&lt;b&gt;auth-service1&lt;/b&gt;&lt;div&gt;&lt;b&gt;Учетные данные клиентов:&lt;/b&gt;&lt;/div&gt;&lt;div&gt;- пароли&lt;/div&gt;&lt;div&gt;- токены&lt;/div&gt;&lt;div&gt;- биометрические шаблоны&amp;nbsp;&lt;/div&gt;" style="rounded=1;fillColor=#f08e81;strokeColor=none;strokeWidth=3;shadow=0;html=1;fontColor=#FFFFFF;align=left;" parent="1" vertex="1">
          <mxGeometry x="1780" y="1402.25" width="200" height="77.75" as="geometry" />
        </mxCell>
        <mxCell id="1501" value="&lt;div&gt;&lt;b&gt;client-mart-app&lt;/b&gt;&lt;/div&gt;&lt;b&gt;Объект&amp;nbsp;&lt;/b&gt;&lt;span style=&quot;color: light-dark(rgb(255, 255, 255), rgb(18, 18, 18)); background-color: transparent;&quot;&gt;&lt;b&gt;недвижимости&lt;/b&gt;:&amp;nbsp;&lt;/span&gt;&lt;div&gt;&lt;div&gt;-полный адрес&lt;/div&gt;&lt;div&gt;-кадастровый номер&lt;/div&gt;&lt;div&gt;-стоимость сделки&lt;/div&gt;&lt;div&gt;-сканы документов&amp;nbsp;&lt;/div&gt;&lt;/div&gt;" style="rounded=1;fillColor=#f08e81;strokeColor=none;strokeWidth=3;shadow=0;html=1;fontColor=#FFFFFF;align=left;" parent="1" vertex="1">
          <mxGeometry x="1780" y="870" width="190" height="100" as="geometry" />
        </mxCell>
        <mxCell id="1502" value="" style="edgeStyle=none;endArrow=none;strokeWidth=3;strokeColor=#F08E81;html=1;entryX=0;entryY=0.5;entryDx=0;entryDy=0;" parent="1" source="1356" target="1501" edge="1">
          <mxGeometry x="188.5" y="51.5" width="100" height="100" as="geometry">
            <mxPoint x="870" y="-90" as="sourcePoint" />
            <mxPoint x="970" y="-190" as="targetPoint" />
          </mxGeometry>
        </mxCell>
        <mxCell id="1503" value="" style="edgeStyle=none;endArrow=none;strokeWidth=3;strokeColor=#F08E81;html=1;exitX=1;exitY=0;exitDx=0;exitDy=0;entryX=0;entryY=0.25;entryDx=0;entryDy=0;" parent="1" source="1501" target="1490" edge="1">
          <mxGeometry x="188.5" y="51.5" width="100" height="100" as="geometry">
            <mxPoint x="870" y="-90" as="sourcePoint" />
            <mxPoint x="970" y="-190" as="targetPoint" />
          </mxGeometry>
        </mxCell>
        <mxCell id="1512" value="" style="edgeStyle=none;endArrow=none;strokeWidth=3;strokeColor=#F08E81;html=1;entryX=0;entryY=0.25;entryDx=0;entryDy=0;" parent="1" source="1356" target="1499" edge="1">
          <mxGeometry x="188.5" y="51.5" width="100" height="100" as="geometry">
            <mxPoint x="870" y="-90" as="sourcePoint" />
            <mxPoint x="970" y="-190" as="targetPoint" />
          </mxGeometry>
        </mxCell>
        <mxCell id="1513" value="" style="edgeStyle=none;endArrow=none;strokeWidth=3;strokeColor=#F08E81;html=1;entryX=0;entryY=0.25;entryDx=0;entryDy=0;" parent="1" source="1356" target="1500" edge="1">
          <mxGeometry x="188.5" y="51.5" width="100" height="100" as="geometry">
            <mxPoint x="870" y="-90" as="sourcePoint" />
            <mxPoint x="970" y="-190" as="targetPoint" />
          </mxGeometry>
        </mxCell>
        <mxCell id="1515" value="Безопасность данных" style="ellipse;whiteSpace=wrap;html=1;shadow=0;fontFamily=Helvetica;fontSize=30;fontColor=#2F5B7C;align=center;strokeColor=#2F5B7C;strokeWidth=6;fillColor=#FFFFFF;fontStyle=1;gradientColor=none;" parent="1" vertex="1">
          <mxGeometry x="961" y="676.5" width="270" height="270" as="geometry" />
        </mxCell>
        <mxCell id="1516" value="&lt;span id=&quot;docs-internal-guid-e09a6595-7fff-21fe-8d55-eb1273916cb0&quot;&gt;&lt;span style=&quot;font-size: 11pt; font-family: Arial, sans-serif; color: rgb(0, 0, 0); background-color: rgb(255, 255, 255); font-variant-numeric: normal; font-variant-east-asian: normal; font-variant-alternates: normal; font-variant-position: normal; font-variant-emoji: normal; vertical-align: baseline; white-space-collapse: preserve;&quot;&gt;Конфиденциальные &lt;/span&gt;&lt;/span&gt;&lt;div&gt;&lt;span&gt;&lt;span style=&quot;font-size: 11pt; font-family: Arial, sans-serif; color: rgb(0, 0, 0); background-color: rgb(255, 255, 255); font-variant-numeric: normal; font-variant-east-asian: normal; font-variant-alternates: normal; font-variant-position: normal; font-variant-emoji: normal; vertical-align: baseline; white-space-collapse: preserve;&quot;&gt;данные&lt;/span&gt;&lt;/span&gt;&lt;/div&gt;" style="ellipse;whiteSpace=wrap;html=1;shadow=0;fontFamily=Helvetica;fontSize=20;align=center;strokeWidth=3;fillColor=#e1d5e7;strokeColor=#9673a6;" parent="1" vertex="1">
          <mxGeometry x="493.5" y="1210" width="120" height="120" as="geometry" />
        </mxCell>
        <mxCell id="1531" value="" style="edgeStyle=none;endArrow=none;strokeWidth=3;strokeColor=#A29DC5;html=1;entryX=0.5;entryY=0;entryDx=0;entryDy=0;" parent="1" source="1516" target="ozscDCPrVm2I_ryFBJd1-1605" edge="1">
          <mxGeometry x="-1498" y="-303.5" width="100" height="100" as="geometry">
            <mxPoint x="-1018" y="5" as="sourcePoint" />
            <mxPoint x="-918" y="-95" as="targetPoint" />
          </mxGeometry>
        </mxCell>
        <mxCell id="1542" style="edgeStyle=none;rounded=0;html=1;exitX=0.5;exitY=1;endArrow=none;endFill=0;jettySize=auto;orthogonalLoop=1;strokeColor=#736CA8;strokeWidth=2;fillColor=#64bbe2;fontSize=20;fontColor=#23445D;" parent="1" edge="1">
          <mxGeometry relative="1" as="geometry">
            <mxPoint x="550" y="838.5" as="sourcePoint" />
            <mxPoint x="550" y="838.5" as="targetPoint" />
          </mxGeometry>
        </mxCell>
        <mxCell id="ozscDCPrVm2I_ryFBJd1-1546" value="" style="edgeStyle=none;endArrow=none;strokeWidth=3;strokeColor=#64BBE2;html=1;exitX=0;exitY=0.25;exitDx=0;exitDy=0;" edge="1" parent="1" source="1390" target="ozscDCPrVm2I_ryFBJd1-1547">
          <mxGeometry x="3.5" y="21.5" width="100" height="100" as="geometry">
            <mxPoint x="320" y="875.5" as="sourcePoint" />
            <mxPoint x="310" y="721.5" as="targetPoint" />
          </mxGeometry>
        </mxCell>
        <mxCell id="ozscDCPrVm2I_ryFBJd1-1547" value="&lt;div style=&quot;padding-top: 0px;&quot;&gt;&lt;b&gt;Риск искажения данных (целостность по ISO)&lt;/b&gt;&lt;/div&gt;&lt;div style=&quot;padding-top: 0px;&quot;&gt;Качественная оценка - критический:&lt;/div&gt;&lt;div style=&quot;padding-top: 0px;&quot;&gt;- может повлиять на отчеты, расчеты, лояльность&amp;nbsp;&lt;/div&gt;&lt;div style=&quot;padding-top: 0px;&quot;&gt;клиентов&lt;/div&gt;&lt;div style=&quot;padding-top: 0px;&quot;&gt;Вероятность - низкая:&amp;nbsp;&lt;/div&gt;&lt;div style=&quot;padding-top: 0px;&quot;&gt;- злонамеренная подмена технически сложна&amp;nbsp;&lt;/div&gt;&lt;div style=&quot;padding-top: 0px;&quot;&gt;- несанкционированный доступ&amp;nbsp;&lt;/div&gt;&lt;div style=&quot;padding-top: 0px;&quot;&gt;из-за проблем с авторизацией&lt;/div&gt;&lt;div style=&quot;padding-top: 0px;&quot;&gt;- технические сбои при&amp;nbsp;&lt;/div&gt;&lt;div style=&quot;padding-top: 0px;&quot;&gt;форматировании/сериализации/передаче&lt;/div&gt;" style="rounded=1;fillColor=#dae8fc;strokeColor=#6c8ebf;strokeWidth=3;shadow=0;html=1;align=left;" vertex="1" parent="1">
          <mxGeometry x="-380" y="650" width="287.5" height="143.5" as="geometry" />
        </mxCell>
        <mxCell id="ozscDCPrVm2I_ryFBJd1-1548" value="&lt;div&gt;&lt;b&gt;Риск некачественных&amp;nbsp;&lt;/b&gt;&lt;b style=&quot;background-color: transparent; color: light-dark(rgb(0, 0, 0), rgb(255, 255, 255));&quot;&gt;данных&amp;nbsp;&lt;/b&gt;&lt;/div&gt;&lt;div&gt;Качественная оценка - значительный&lt;b style=&quot;background-color: transparent; color: light-dark(rgb(0, 0, 0), rgb(255, 255, 255));&quot;&gt;&lt;/b&gt;&lt;/div&gt;&lt;div&gt;-&lt;span style=&quot;background-color: transparent; color: light-dark(rgb(0, 0, 0), rgb(255, 255, 255));&quot;&gt;&amp;nbsp;ощутимый вред финансовым интересам&amp;nbsp;&lt;/span&gt;&lt;/div&gt;&lt;div&gt;&lt;span style=&quot;background-color: transparent; color: light-dark(rgb(0, 0, 0), rgb(255, 255, 255));&quot;&gt;компании&lt;/span&gt;&lt;/div&gt;&lt;div&gt;Вероятность - высокая:&lt;/div&gt;&lt;div&gt;- халатное заполнение анкет клиентами:&amp;nbsp;&lt;/div&gt;&lt;div&gt;----&lt;span style=&quot;background-color: transparent; color: light-dark(rgb(0, 0, 0), rgb(255, 255, 255));&quot;&gt;----&lt;/span&gt;&lt;span style=&quot;background-color: transparent; color: light-dark(rgb(0, 0, 0), rgb(255, 255, 255));&quot;&gt;дублирование объявлений&amp;nbsp;&lt;/span&gt;&lt;/div&gt;&lt;div&gt;&lt;span style=&quot;background-color: transparent; color: light-dark(rgb(0, 0, 0), rgb(255, 255, 255));&quot;&gt;----&lt;/span&gt;&lt;span style=&quot;background-color: transparent; color: light-dark(rgb(0, 0, 0), rgb(255, 255, 255));&quot;&gt;----&lt;/span&gt;&lt;span style=&quot;background-color: transparent; color: light-dark(rgb(0, 0, 0), rgb(255, 255, 255));&quot;&gt;н&lt;/span&gt;&lt;span style=&quot;background-color: transparent; color: light-dark(rgb(0, 0, 0), rgb(255, 255, 255));&quot;&gt;еполный ввод (пустые поля)&lt;/span&gt;&lt;span style=&quot;background-color: transparent; color: light-dark(rgb(0, 0, 0), rgb(255, 255, 255));&quot;&gt;,&lt;/span&gt;&lt;/div&gt;&lt;div&gt;&lt;span style=&quot;background-color: transparent; color: light-dark(rgb(0, 0, 0), rgb(255, 255, 255));&quot;&gt;----&lt;/span&gt;&lt;span style=&quot;background-color: transparent; color: light-dark(rgb(0, 0, 0), rgb(255, 255, 255));&quot;&gt;----&lt;/span&gt;&lt;span style=&quot;background-color: transparent; color: light-dark(rgb(0, 0, 0), rgb(255, 255, 255));&quot;&gt;записи с опечатками,&amp;nbsp;&lt;/span&gt;&lt;/div&gt;&lt;div&gt;&lt;span style=&quot;background-color: transparent; color: light-dark(rgb(0, 0, 0), rgb(255, 255, 255));&quot;&gt;----&lt;/span&gt;&lt;span style=&quot;background-color: transparent; color: light-dark(rgb(0, 0, 0), rgb(255, 255, 255));&quot;&gt;----&lt;/span&gt;&lt;span style=&quot;background-color: transparent; color: light-dark(rgb(0, 0, 0), rgb(255, 255, 255));&quot;&gt;неверный формат,&amp;nbsp;&lt;/span&gt;&lt;/div&gt;&lt;div&gt;&lt;span style=&quot;background-color: transparent; color: light-dark(rgb(0, 0, 0), rgb(255, 255, 255));&quot;&gt;----&lt;/span&gt;&lt;span style=&quot;background-color: transparent; color: light-dark(rgb(0, 0, 0), rgb(255, 255, 255));&quot;&gt;----&lt;/span&gt;&lt;span style=&quot;background-color: transparent; color: light-dark(rgb(0, 0, 0), rgb(255, 255, 255));&quot;&gt;противречивая информация&lt;/span&gt;&lt;/div&gt;&lt;div&gt;&lt;div&gt;&lt;div style=&quot;padding-top: 0px;&quot;&gt;- технические сбои при&amp;nbsp;&lt;/div&gt;&lt;div style=&quot;padding-top: 0px;&quot;&gt;форматировании/сериализации/передаче&lt;/div&gt;&lt;/div&gt;&lt;div&gt;&lt;div&gt;-&amp;nbsp;&lt;span style=&quot;background-color: transparent; color: light-dark(rgb(0, 0, 0), rgb(255, 255, 255));&quot;&gt;несанкционированный доступ&lt;/span&gt;&lt;/div&gt;&lt;div&gt;&lt;div style=&quot;padding-top: 0px;&quot;&gt;из-за проблем с авторизацией&lt;/div&gt;&lt;/div&gt;&lt;/div&gt;&lt;/div&gt;" style="rounded=1;fillColor=#dae8fc;strokeColor=#6c8ebf;strokeWidth=3;shadow=0;html=1;align=left;" vertex="1" parent="1">
          <mxGeometry x="-376.87" y="933.25" width="281.25" height="226.75" as="geometry" />
        </mxCell>
        <mxCell id="ozscDCPrVm2I_ryFBJd1-1549" value="" style="edgeStyle=none;endArrow=none;strokeWidth=3;strokeColor=#64BBE2;html=1;exitX=0;exitY=0.75;exitDx=0;exitDy=0;" edge="1" parent="1" source="1390" target="ozscDCPrVm2I_ryFBJd1-1548">
          <mxGeometry x="3.5" y="21.5" width="100" height="100" as="geometry">
            <mxPoint x="150" y="881.5" as="sourcePoint" />
            <mxPoint x="188" y="899.5" as="targetPoint" />
          </mxGeometry>
        </mxCell>
        <mxCell id="ozscDCPrVm2I_ryFBJd1-1550" value="&lt;div style=&quot;&quot;&gt;&lt;b&gt;Риск обесценивания&amp;nbsp;&lt;/b&gt;&lt;b style=&quot;background-color: transparent; color: light-dark(rgb(0, 0, 0), rgb(255, 255, 255));&quot;&gt;данных&amp;nbsp;&lt;/b&gt;&lt;/div&gt;&lt;div style=&quot;&quot;&gt;&lt;span style=&quot;background-color: transparent; color: light-dark(rgb(0, 0, 0), rgb(255, 255, 255));&quot;&gt;Качественная оценка - значительный&lt;/span&gt;&lt;/div&gt;&lt;div style=&quot;&quot;&gt;&lt;div&gt;-&lt;span style=&quot;background-color: transparent; color: light-dark(rgb(0, 0, 0), rgb(255, 255, 255));&quot;&gt;&amp;nbsp;ощутимый вред финансовым интересам&amp;nbsp;&lt;/span&gt;&lt;/div&gt;&lt;div&gt;&lt;span style=&quot;background-color: transparent; color: light-dark(rgb(0, 0, 0), rgb(255, 255, 255));&quot;&gt;компании&lt;/span&gt;&lt;/div&gt;&lt;/div&gt;&lt;div style=&quot;&quot;&gt;&lt;span style=&quot;background-color: transparent; color: light-dark(rgb(0, 0, 0), rgb(255, 255, 255));&quot;&gt;Вероятность - высокая:&lt;/span&gt;&lt;/div&gt;&lt;div style=&quot;&quot;&gt;&lt;span style=&quot;background-color: transparent; color: light-dark(rgb(0, 0, 0), rgb(255, 255, 255));&quot;&gt;- либо это утечка базы&lt;/span&gt;&lt;/div&gt;&lt;div style=&quot;&quot;&gt;&lt;span style=&quot;background-color: transparent; color: light-dark(rgb(0, 0, 0), rgb(255, 255, 255));&quot;&gt;- дублирование объялений&lt;/span&gt;&lt;/div&gt;&lt;div style=&quot;&quot;&gt;&lt;span style=&quot;background-color: transparent; color: light-dark(rgb(0, 0, 0), rgb(255, 255, 255));&quot;&gt;- неактуаьные объявления&lt;/span&gt;&lt;span style=&quot;background-color: transparent; color: light-dark(rgb(0, 0, 0), rgb(255, 255, 255));&quot;&gt;&amp;nbsp;&lt;/span&gt;&lt;/div&gt;" style="rounded=1;fillColor=#dae8fc;strokeColor=#6c8ebf;strokeWidth=3;shadow=0;html=1;align=left;" vertex="1" parent="1">
          <mxGeometry x="-376.87" y="1172.5" width="276.87" height="127.5" as="geometry" />
        </mxCell>
        <mxCell id="ozscDCPrVm2I_ryFBJd1-1551" value="&lt;div&gt;&lt;b&gt;Риск потери данных&amp;nbsp;&lt;/b&gt;&lt;b style=&quot;background-color: transparent; color: light-dark(rgb(0, 0, 0), rgb(255, 255, 255));&quot;&gt;(доступность по ISO)&lt;/b&gt;&lt;/div&gt;&lt;div&gt;&lt;span style=&quot;background-color: transparent; color: light-dark(rgb(0, 0, 0), rgb(255, 255, 255));&quot;&gt;Качественная оценка - значительный&lt;/span&gt;&lt;/div&gt;&lt;div&gt;&lt;span style=&quot;background-color: transparent; color: light-dark(rgb(0, 0, 0), rgb(255, 255, 255));&quot;&gt;- сбой приведет к ощутимым задержкам&amp;nbsp;&lt;/span&gt;&lt;/div&gt;&lt;div&gt;&lt;span style=&quot;background-color: transparent; color: light-dark(rgb(0, 0, 0), rgb(255, 255, 255));&quot;&gt;в бизнес-процессах&amp;nbsp;&lt;/span&gt;&lt;/div&gt;&lt;div&gt;&lt;span style=&quot;background-color: transparent; color: light-dark(rgb(0, 0, 0), rgb(255, 255, 255));&quot;&gt;Вероятность - средняя&lt;/span&gt;&lt;/div&gt;&lt;div&gt;&lt;span style=&quot;background-color: transparent; color: light-dark(rgb(0, 0, 0), rgb(255, 255, 255));&quot;&gt;- DDoS атаки&lt;/span&gt;&lt;/div&gt;&lt;div&gt;&lt;div style=&quot;padding-top: 0px;&quot;&gt;- несанкционированного доступа&amp;nbsp;&lt;/div&gt;&lt;div style=&quot;padding-top: 0px;&quot;&gt;из-за проблем с авторизацией&lt;/div&gt;&lt;/div&gt;&lt;div&gt;&lt;span style=&quot;background-color: transparent; color: light-dark(rgb(0, 0, 0), rgb(255, 255, 255));&quot;&gt;&lt;br&gt;&lt;/span&gt;&lt;/div&gt;" style="rounded=1;fillColor=#dae8fc;strokeColor=#6c8ebf;strokeWidth=3;shadow=0;html=1;align=left;" vertex="1" parent="1">
          <mxGeometry x="-380" y="798.5" width="286.25" height="130" as="geometry" />
        </mxCell>
        <mxCell id="ozscDCPrVm2I_ryFBJd1-1552" value="" style="edgeStyle=orthogonalEdgeStyle;endArrow=none;strokeWidth=3;strokeColor=#64BBE2;html=1;exitX=0;exitY=1;exitDx=0;exitDy=0;" edge="1" parent="1" source="1390" target="ozscDCPrVm2I_ryFBJd1-1550">
          <mxGeometry x="3.5" y="21.5" width="100" height="100" as="geometry">
            <mxPoint x="230" y="831.5" as="sourcePoint" />
            <mxPoint x="268" y="911.5" as="targetPoint" />
            <Array as="points">
              <mxPoint x="160" y="1236" />
            </Array>
          </mxGeometry>
        </mxCell>
        <mxCell id="ozscDCPrVm2I_ryFBJd1-1553" value="" style="edgeStyle=none;endArrow=none;strokeWidth=3;strokeColor=#64BBE2;html=1;exitX=0.001;exitY=0.425;exitDx=0;exitDy=0;exitPerimeter=0;" edge="1" parent="1" source="1390" target="ozscDCPrVm2I_ryFBJd1-1551">
          <mxGeometry x="3.5" y="21.5" width="100" height="100" as="geometry">
            <mxPoint x="150" y="841.5" as="sourcePoint" />
            <mxPoint x="188" y="979.5" as="targetPoint" />
          </mxGeometry>
        </mxCell>
        <mxCell id="ozscDCPrVm2I_ryFBJd1-1555" value="&lt;div&gt;&lt;b&gt;Риск утечки объявления&lt;span style=&quot;background-color: transparent; color: light-dark(rgb(0, 0, 0), rgb(255, 255, 255));&quot;&gt;&amp;nbsp;&lt;/span&gt;&lt;/b&gt;&lt;b style=&quot;background-color: transparent; color: light-dark(rgb(0, 0, 0), rgb(255, 255, 255));&quot;&gt;(утечка по ISO)&lt;/b&gt;&lt;/div&gt;&lt;div&gt;Качественная оценка - значительный&lt;/div&gt;&lt;div&gt;Вероятность - высокая:&amp;nbsp;&lt;/div&gt;&lt;div&gt;- отсутствие водяных знаков на фото&lt;/div&gt;" style="rounded=1;fillColor=#dae8fc;strokeColor=#6c8ebf;strokeWidth=3;shadow=0;html=1;align=left;" vertex="1" parent="1">
          <mxGeometry x="-382.5" y="440" width="290" height="72.25" as="geometry" />
        </mxCell>
        <mxCell id="ozscDCPrVm2I_ryFBJd1-1556" value="" style="edgeStyle=none;endArrow=none;strokeWidth=3;strokeColor=#64BBE2;html=1;entryX=1;entryY=0.5;entryDx=0;entryDy=0;" edge="1" parent="1" source="1390" target="ozscDCPrVm2I_ryFBJd1-1555">
          <mxGeometry x="3.5" y="21.5" width="100" height="100" as="geometry">
            <mxPoint x="170" y="610" as="sourcePoint" />
            <mxPoint x="20" y="560" as="targetPoint" />
          </mxGeometry>
        </mxCell>
        <mxCell id="ozscDCPrVm2I_ryFBJd1-1557" value="&lt;div&gt;Объект может быть продан на другой площадке =&amp;gt;&lt;/div&gt;&lt;div&gt;&amp;nbsp;потеря комиссионных отчислений,&amp;nbsp;&lt;/div&gt;&lt;div&gt;снижение лояльности продавца,&amp;nbsp;&lt;/div&gt;&lt;div&gt;обесценивание контента =&amp;gt;&amp;nbsp;&lt;/div&gt;&lt;div&gt;&lt;span style=&quot;background-color: transparent; color: light-dark(rgb(0, 0, 0), rgb(255, 255, 255));&quot;&gt;можно устранить с помощью водяных знаков на фото и&amp;nbsp;&lt;/span&gt;&lt;/div&gt;&lt;div&gt;&lt;span style=&quot;background-color: transparent; color: light-dark(rgb(0, 0, 0), rgb(255, 255, 255));&quot;&gt;псевдонимизации контактов продавца&amp;nbsp;&lt;/span&gt;&lt;/div&gt;" style="rounded=1;strokeWidth=3;shadow=0;html=1;align=left;" vertex="1" parent="1">
          <mxGeometry x="-790" y="440" width="401" height="100" as="geometry" />
        </mxCell>
        <mxCell id="ozscDCPrVm2I_ryFBJd1-1558" value="&lt;div&gt;База объектов недвижимости - это актив компании =&amp;gt;&lt;/div&gt;&lt;div&gt;&amp;nbsp;потеря комиссионных отчислений,&amp;nbsp;&lt;/div&gt;&lt;div&gt;снижение лояльности продавца,&amp;nbsp;&lt;/div&gt;&lt;div&gt;обесценивание контента, потеря конкурентного преимущества =&amp;gt;&amp;nbsp;&lt;/div&gt;&lt;div&gt;снижение прибыли на знаительный срок&lt;/div&gt;" style="rounded=1;strokeWidth=3;shadow=0;html=1;align=left;" vertex="1" parent="1">
          <mxGeometry x="-790" y="551.5" width="400" height="84.62" as="geometry" />
        </mxCell>
        <mxCell id="ozscDCPrVm2I_ryFBJd1-1559" value="&lt;div&gt;Нарушение условий публичной оферты =&amp;gt;&lt;/div&gt;&lt;div&gt;&amp;nbsp;издержки пользователей, юридические последствия,&amp;nbsp;&lt;/div&gt;&lt;div&gt;обесценивание контента&lt;span style=&quot;background-color: transparent; color: light-dark(rgb(0, 0, 0), rgb(255, 255, 255));&quot;&gt;&amp;nbsp;=&amp;gt;&amp;nbsp;&lt;/span&gt;&lt;/div&gt;&lt;div&gt;финансовые, репутационные, правовые издержки&lt;/div&gt;" style="rounded=1;strokeWidth=3;shadow=0;html=1;align=left;" vertex="1" parent="1">
          <mxGeometry x="-790" y="650" width="400" height="84.62" as="geometry" />
        </mxCell>
        <mxCell id="ozscDCPrVm2I_ryFBJd1-1560" value="&lt;div&gt;Недотупность контента =&amp;gt;&lt;/div&gt;&lt;div&gt;&amp;nbsp;потеря клиентов и конкурентных преимуществ&lt;span style=&quot;background-color: transparent; color: light-dark(rgb(0, 0, 0), rgb(255, 255, 255));&quot;&gt;&amp;nbsp;=&amp;gt;&amp;nbsp;&lt;/span&gt;&lt;/div&gt;&lt;div&gt;финансовые, репутационные издержки&lt;/div&gt;" style="rounded=1;strokeWidth=3;shadow=0;html=1;align=left;" vertex="1" parent="1">
          <mxGeometry x="-790" y="798.5" width="400" height="84.62" as="geometry" />
        </mxCell>
        <mxCell id="ozscDCPrVm2I_ryFBJd1-1561" value="&lt;div&gt;Сложность поиска объекта =&amp;gt; потеря конкурентных преимуществ =&amp;gt;&lt;span style=&quot;background-color: transparent; color: light-dark(rgb(0, 0, 0), rgb(255, 255, 255));&quot;&gt;&amp;nbsp;&lt;/span&gt;&lt;/div&gt;&lt;div&gt;финансовые, репутационные издержки&lt;/div&gt;" style="rounded=1;strokeWidth=3;shadow=0;html=1;align=left;" vertex="1" parent="1">
          <mxGeometry x="-790" y="940" width="400" height="84.62" as="geometry" />
        </mxCell>
        <mxCell id="ozscDCPrVm2I_ryFBJd1-1562" value="&lt;div&gt;Сложность поиска объекта =&amp;gt; потеря конкурентных преимуществ =&amp;gt;&lt;span style=&quot;background-color: transparent; color: light-dark(rgb(0, 0, 0), rgb(255, 255, 255));&quot;&gt;&amp;nbsp;&lt;/span&gt;&lt;/div&gt;&lt;div&gt;финансовые, репутационные издержки&lt;/div&gt;" style="rounded=1;strokeWidth=3;shadow=0;html=1;align=left;" vertex="1" parent="1">
          <mxGeometry x="-790" y="1172.5" width="400" height="84.62" as="geometry" />
        </mxCell>
        <mxCell id="ozscDCPrVm2I_ryFBJd1-1566" value="&lt;div&gt;&lt;b&gt;Риск некачественных&amp;nbsp;&lt;/b&gt;&lt;b style=&quot;background-color: transparent; color: light-dark(rgb(0, 0, 0), rgb(255, 255, 255));&quot;&gt;данных&amp;nbsp;&lt;/b&gt;&lt;/div&gt;&lt;div&gt;Качественная оценка - критический&lt;b style=&quot;background-color: transparent; color: light-dark(rgb(0, 0, 0), rgb(255, 255, 255));&quot;&gt;&lt;/b&gt;&lt;/div&gt;&lt;div&gt;- может повлечь юридические последствия&amp;nbsp;&lt;/div&gt;&lt;div&gt;Вероятность - высокая:&lt;/div&gt;&lt;div&gt;- халатное заполнение анкет клиентами:&amp;nbsp;&lt;/div&gt;&lt;div&gt;&lt;span style=&quot;background-color: transparent; color: light-dark(rgb(0, 0, 0), rgb(255, 255, 255));&quot;&gt;----&lt;/span&gt;&lt;span style=&quot;background-color: transparent; color: light-dark(rgb(0, 0, 0), rgb(255, 255, 255));&quot;&gt;----&lt;/span&gt;&lt;span style=&quot;background-color: transparent; color: light-dark(rgb(0, 0, 0), rgb(255, 255, 255));&quot;&gt;н&lt;/span&gt;&lt;span style=&quot;background-color: transparent; color: light-dark(rgb(0, 0, 0), rgb(255, 255, 255));&quot;&gt;еполный ввод (пустые поля)&lt;/span&gt;&lt;span style=&quot;background-color: transparent; color: light-dark(rgb(0, 0, 0), rgb(255, 255, 255));&quot;&gt;,&lt;/span&gt;&lt;/div&gt;&lt;div&gt;&lt;span style=&quot;background-color: transparent; color: light-dark(rgb(0, 0, 0), rgb(255, 255, 255));&quot;&gt;----&lt;/span&gt;&lt;span style=&quot;background-color: transparent; color: light-dark(rgb(0, 0, 0), rgb(255, 255, 255));&quot;&gt;----&lt;/span&gt;&lt;span style=&quot;background-color: transparent; color: light-dark(rgb(0, 0, 0), rgb(255, 255, 255));&quot;&gt;записи с опечатками,&amp;nbsp;&lt;/span&gt;&lt;/div&gt;&lt;div&gt;&lt;span style=&quot;background-color: transparent; color: light-dark(rgb(0, 0, 0), rgb(255, 255, 255));&quot;&gt;----&lt;/span&gt;&lt;span style=&quot;background-color: transparent; color: light-dark(rgb(0, 0, 0), rgb(255, 255, 255));&quot;&gt;----&lt;/span&gt;&lt;span style=&quot;background-color: transparent; color: light-dark(rgb(0, 0, 0), rgb(255, 255, 255));&quot;&gt;неверный формат,&amp;nbsp;&lt;/span&gt;&lt;/div&gt;&lt;div&gt;&lt;span style=&quot;background-color: transparent; color: light-dark(rgb(0, 0, 0), rgb(255, 255, 255));&quot;&gt;----&lt;/span&gt;&lt;span style=&quot;background-color: transparent; color: light-dark(rgb(0, 0, 0), rgb(255, 255, 255));&quot;&gt;----&lt;/span&gt;&lt;span style=&quot;background-color: transparent; color: light-dark(rgb(0, 0, 0), rgb(255, 255, 255));&quot;&gt;противречивая информация&lt;/span&gt;&lt;/div&gt;&lt;div&gt;&lt;div&gt;&lt;div style=&quot;padding-top: 0px;&quot;&gt;- технические сбои при&amp;nbsp;&lt;/div&gt;&lt;div style=&quot;padding-top: 0px;&quot;&gt;форматировании/сериализации/передаче&lt;/div&gt;&lt;/div&gt;&lt;div&gt;&lt;div&gt;-&amp;nbsp;&lt;span style=&quot;background-color: transparent; color: light-dark(rgb(0, 0, 0), rgb(255, 255, 255));&quot;&gt;несанкционированный доступ&lt;/span&gt;&lt;/div&gt;&lt;div&gt;&lt;div style=&quot;padding-top: 0px;&quot;&gt;из-за проблем с авторизацией&lt;/div&gt;&lt;/div&gt;&lt;/div&gt;&lt;/div&gt;" style="rounded=1;fillColor=#f8cecc;strokeColor=#b85450;strokeWidth=3;shadow=0;html=1;align=left;" vertex="1" parent="1">
          <mxGeometry x="2015" y="1172.5" width="281.25" height="207.5" as="geometry" />
        </mxCell>
        <mxCell id="ozscDCPrVm2I_ryFBJd1-1570" value="&lt;div&gt;&amp;nbsp;Данные или их связи грозят&amp;nbsp;&lt;span style=&quot;background-color: transparent; color: light-dark(rgb(0, 0, 0), rgb(255, 255, 255));&quot; data-end=&quot;371&quot; data-start=&quot;361&quot;&gt;фродом&lt;/span&gt;&lt;span style=&quot;background-color: transparent; color: light-dark(rgb(0, 0, 0), rgb(255, 255, 255));&quot;&gt;, &lt;/span&gt;&lt;span style=&quot;background-color: transparent; color: light-dark(rgb(0, 0, 0), rgb(255, 255, 255));&quot; data-end=&quot;392&quot; data-start=&quot;373&quot;&gt;кражей личности&lt;/span&gt;&lt;span style=&quot;background-color: transparent; color: light-dark(rgb(0, 0, 0), rgb(255, 255, 255));&quot;&gt;,&amp;nbsp;&lt;/span&gt;&lt;/div&gt;&lt;div&gt;&lt;span style=&quot;background-color: transparent; color: light-dark(rgb(0, 0, 0), rgb(255, 255, 255));&quot; data-end=&quot;430&quot; data-start=&quot;394&quot;&gt;незаконной перерегистрацией прав&lt;/span&gt;&lt;span style=&quot;background-color: transparent; color: light-dark(rgb(0, 0, 0), rgb(255, 255, 255));&quot;&gt;=&amp;gt;&lt;/span&gt;&lt;/div&gt;&lt;div&gt;&amp;nbsp;юридические и серьезные репутационные последствия,&amp;nbsp;&lt;/div&gt;&lt;div&gt;купный финансовый ущерб киенту и компании&amp;nbsp;&lt;br&gt;&lt;/div&gt;" style="rounded=1;strokeWidth=3;shadow=0;html=1;align=left;" vertex="1" parent="1">
          <mxGeometry x="2310" y="806.75" width="401" height="61.5" as="geometry" />
        </mxCell>
        <mxCell id="ozscDCPrVm2I_ryFBJd1-1571" value="&lt;div&gt;Изменение, утеря данных может привести к ничтожности сделки =&amp;gt;&lt;/div&gt;&lt;div&gt;&amp;nbsp;&lt;span style=&quot;background-color: transparent; color: light-dark(rgb(0, 0, 0), rgb(255, 255, 255));&quot;&gt;юридические и серьезные репутационные последствия,&amp;nbsp;&lt;/span&gt;&lt;/div&gt;&lt;div&gt;купный финансовый ущерб киенту и компании&amp;nbsp;&lt;/div&gt;" style="rounded=1;strokeWidth=3;shadow=0;html=1;align=left;" vertex="1" parent="1">
          <mxGeometry x="2310" y="885.38" width="400" height="54.62" as="geometry" />
        </mxCell>
        <mxCell id="ozscDCPrVm2I_ryFBJd1-1572" value="&lt;div&gt;Недоступность&amp;nbsp; данных может привести к срыву сделки =&amp;gt;&lt;/div&gt;&lt;div&gt;&amp;nbsp;&lt;span style=&quot;background-color: transparent; color: light-dark(rgb(0, 0, 0), rgb(255, 255, 255));&quot;&gt;серьезные репутационные последствия&lt;br&gt;&lt;/span&gt;&lt;/div&gt;" style="rounded=1;strokeWidth=3;shadow=0;html=1;align=left;" vertex="1" parent="1">
          <mxGeometry x="2310" y="1030" width="400" height="40" as="geometry" />
        </mxCell>
        <mxCell id="ozscDCPrVm2I_ryFBJd1-1573" value="&lt;div&gt;Плохое качество данных может привести к ничтожности сделки =&amp;gt;&lt;/div&gt;&lt;div&gt;&amp;nbsp;&lt;span style=&quot;background-color: transparent; color: light-dark(rgb(0, 0, 0), rgb(255, 255, 255));&quot;&gt;юридические и серьезные репутационные последствия,&amp;nbsp;&lt;/span&gt;&lt;/div&gt;&lt;div&gt;купный финансовый ущерб киенту и компании&amp;nbsp;&lt;/div&gt;" style="rounded=1;strokeWidth=3;shadow=0;html=1;align=left;" vertex="1" parent="1">
          <mxGeometry x="2311" y="1172.5" width="400" height="57.5" as="geometry" />
        </mxCell>
        <mxCell id="ozscDCPrVm2I_ryFBJd1-1576" value="&lt;div style=&quot;padding-top: 0px;&quot;&gt;&lt;b&gt;Риск искажения данных (целостность по ISO)&lt;/b&gt;&lt;/div&gt;&lt;div style=&quot;padding-top: 0px;&quot;&gt;Качественная оценка - критический:&lt;/div&gt;&lt;div style=&quot;padding-top: 0px;&quot;&gt;- может повлечь юридические последствия&amp;nbsp;&lt;/div&gt;&lt;div style=&quot;padding-top: 0px;&quot;&gt;клиентов&lt;/div&gt;&lt;div style=&quot;padding-top: 0px;&quot;&gt;Вероятность - низкая:&amp;nbsp;&lt;/div&gt;&lt;div style=&quot;padding-top: 0px;&quot;&gt;- злонамеренная подмена технически сложна&amp;nbsp;&lt;/div&gt;&lt;div style=&quot;padding-top: 0px;&quot;&gt;- несанкционированный доступ&amp;nbsp;&lt;/div&gt;&lt;div style=&quot;padding-top: 0px;&quot;&gt;из-за проблем с авторизацией&lt;/div&gt;&lt;div style=&quot;padding-top: 0px;&quot;&gt;- технические сбои при&amp;nbsp;&lt;/div&gt;&lt;div style=&quot;padding-top: 0px;&quot;&gt;форматировании/сериализации/передаче&lt;/div&gt;" style="rounded=1;fillColor=#f8cecc;strokeColor=#b85450;strokeWidth=3;shadow=0;html=1;align=left;" vertex="1" parent="1">
          <mxGeometry x="2010" y="878.25" width="287.5" height="143.5" as="geometry" />
        </mxCell>
        <mxCell id="ozscDCPrVm2I_ryFBJd1-1577" value="&lt;div&gt;&lt;b&gt;Риск потери данных&amp;nbsp;&lt;/b&gt;&lt;b style=&quot;background-color: transparent; color: light-dark(rgb(0, 0, 0), rgb(255, 255, 255));&quot;&gt;(доступность по ISO)&lt;/b&gt;&lt;/div&gt;&lt;div&gt;&lt;span style=&quot;background-color: transparent; color: light-dark(rgb(0, 0, 0), rgb(255, 255, 255));&quot;&gt;Качественная оценка - значительный&lt;/span&gt;&lt;/div&gt;&lt;div&gt;&lt;span style=&quot;background-color: transparent; color: light-dark(rgb(0, 0, 0), rgb(255, 255, 255));&quot;&gt;- сбой приведет к ощутимым задержкам&amp;nbsp;&lt;/span&gt;&lt;/div&gt;&lt;div&gt;&lt;span style=&quot;background-color: transparent; color: light-dark(rgb(0, 0, 0), rgb(255, 255, 255));&quot;&gt;в бизнес-процессах&amp;nbsp;&lt;/span&gt;&lt;/div&gt;&lt;div&gt;&lt;span style=&quot;background-color: transparent; color: light-dark(rgb(0, 0, 0), rgb(255, 255, 255));&quot;&gt;Вероятность - средняя&lt;/span&gt;&lt;/div&gt;&lt;div&gt;&lt;span style=&quot;background-color: transparent; color: light-dark(rgb(0, 0, 0), rgb(255, 255, 255));&quot;&gt;- DDoS атаки&lt;/span&gt;&lt;/div&gt;&lt;div&gt;&lt;div style=&quot;padding-top: 0px;&quot;&gt;- несанкционированного доступа&amp;nbsp;&lt;/div&gt;&lt;div style=&quot;padding-top: 0px;&quot;&gt;из-за проблем с авторизацией&lt;/div&gt;&lt;/div&gt;&lt;div&gt;&lt;span style=&quot;background-color: transparent; color: light-dark(rgb(0, 0, 0), rgb(255, 255, 255));&quot;&gt;&lt;br&gt;&lt;/span&gt;&lt;/div&gt;" style="rounded=1;fillColor=#f8cecc;strokeColor=#b85450;strokeWidth=3;shadow=0;html=1;align=left;" vertex="1" parent="1">
          <mxGeometry x="2010" y="1030" width="286.25" height="130" as="geometry" />
        </mxCell>
        <mxCell id="ozscDCPrVm2I_ryFBJd1-1578" value="" style="edgeStyle=none;endArrow=none;strokeWidth=3;strokeColor=#F08E81;html=1;exitX=1;exitY=0.25;exitDx=0;exitDy=0;entryX=0;entryY=0;entryDx=0;entryDy=0;" edge="1" parent="1" source="1501" target="ozscDCPrVm2I_ryFBJd1-1576">
          <mxGeometry x="188.5" y="51.5" width="100" height="100" as="geometry">
            <mxPoint x="1980" y="867" as="sourcePoint" />
            <mxPoint x="2020" y="860" as="targetPoint" />
          </mxGeometry>
        </mxCell>
        <mxCell id="ozscDCPrVm2I_ryFBJd1-1579" value="" style="edgeStyle=none;endArrow=none;strokeWidth=3;strokeColor=#F08E81;html=1;exitX=1;exitY=0.5;exitDx=0;exitDy=0;entryX=0.008;entryY=0.056;entryDx=0;entryDy=0;entryPerimeter=0;" edge="1" parent="1" source="1501" target="ozscDCPrVm2I_ryFBJd1-1577">
          <mxGeometry x="188.5" y="51.5" width="100" height="100" as="geometry">
            <mxPoint x="1930" y="1037" as="sourcePoint" />
            <mxPoint x="1970" y="1030" as="targetPoint" />
          </mxGeometry>
        </mxCell>
        <mxCell id="ozscDCPrVm2I_ryFBJd1-1580" value="" style="edgeStyle=orthogonalEdgeStyle;endArrow=none;strokeWidth=3;strokeColor=#F08E81;html=1;exitX=1;exitY=0.75;exitDx=0;exitDy=0;entryX=0;entryY=0.25;entryDx=0;entryDy=0;" edge="1" parent="1" source="1501" target="ozscDCPrVm2I_ryFBJd1-1566">
          <mxGeometry x="188.5" y="51.5" width="100" height="100" as="geometry">
            <mxPoint x="1940" y="1107" as="sourcePoint" />
            <mxPoint x="1980" y="1100" as="targetPoint" />
            <Array as="points">
              <mxPoint x="1900" y="945" />
              <mxPoint x="1900" y="1224" />
            </Array>
          </mxGeometry>
        </mxCell>
        <mxCell id="ozscDCPrVm2I_ryFBJd1-1581" value="&lt;div&gt;&lt;b&gt;client-tour-app&lt;/b&gt;&lt;/div&gt;&lt;b&gt;Объект&amp;nbsp;&lt;/b&gt;&lt;span style=&quot;background-color: transparent; color: light-dark(rgb(255, 255, 255), rgb(18, 18, 18));&quot;&gt;&lt;b&gt;недвижимости&lt;/b&gt;:&amp;nbsp;&lt;/span&gt;&lt;div&gt;&lt;span style=&quot;background-color: transparent; color: light-dark(rgb(255, 255, 255), rgb(18, 18, 18));&quot;&gt;- видео квартиры&lt;br&gt;&lt;/span&gt;&lt;/div&gt;" style="rounded=1;fillColor=#64BBE2;strokeColor=none;strokeWidth=3;shadow=0;html=1;fontColor=#FFFFFF;align=left;" vertex="1" parent="1">
          <mxGeometry x="159.75" y="1336" width="180.25" height="50" as="geometry" />
        </mxCell>
        <mxCell id="ozscDCPrVm2I_ryFBJd1-1582" value="" style="edgeStyle=none;endArrow=none;strokeWidth=3;strokeColor=#64BBE2;html=1;entryX=0.75;entryY=0;entryDx=0;entryDy=0;exitX=0;exitY=1;exitDx=0;exitDy=0;" edge="1" parent="1" source="1350" target="ozscDCPrVm2I_ryFBJd1-1581">
          <mxGeometry x="3.5" y="21.5" width="100" height="100" as="geometry">
            <mxPoint x="566" y="600" as="sourcePoint" />
            <mxPoint x="410" y="648" as="targetPoint" />
          </mxGeometry>
        </mxCell>
        <mxCell id="ozscDCPrVm2I_ryFBJd1-1595" value="&lt;div&gt;&lt;b&gt;Риск потери данных&amp;nbsp;&lt;/b&gt;&lt;b style=&quot;background-color: transparent; color: light-dark(rgb(0, 0, 0), rgb(255, 255, 255));&quot;&gt;(доступность по ISO)&lt;/b&gt;&lt;/div&gt;&lt;div&gt;&lt;span style=&quot;background-color: transparent; color: light-dark(rgb(0, 0, 0), rgb(255, 255, 255));&quot;&gt;Качественная оценка - незначительный&lt;/span&gt;&lt;/div&gt;&lt;div&gt;&lt;span style=&quot;background-color: transparent; color: light-dark(rgb(0, 0, 0), rgb(255, 255, 255));&quot;&gt;- сбой приведет к ощутимым задержкам&amp;nbsp;&lt;/span&gt;&lt;/div&gt;&lt;div&gt;&lt;span style=&quot;background-color: transparent; color: light-dark(rgb(0, 0, 0), rgb(255, 255, 255));&quot;&gt;в бизнес-процессах&amp;nbsp;&lt;/span&gt;&lt;/div&gt;&lt;div&gt;&lt;span style=&quot;background-color: transparent; color: light-dark(rgb(0, 0, 0), rgb(255, 255, 255));&quot;&gt;Вероятность - средняя&lt;/span&gt;&lt;/div&gt;&lt;div&gt;&lt;span style=&quot;background-color: transparent; color: light-dark(rgb(0, 0, 0), rgb(255, 255, 255));&quot;&gt;- DDoS атаки&lt;/span&gt;&lt;/div&gt;&lt;div&gt;&lt;div style=&quot;padding-top: 0px;&quot;&gt;- несанкционированного доступа&amp;nbsp;&lt;/div&gt;&lt;div style=&quot;padding-top: 0px;&quot;&gt;из-за проблем с авторизацией&lt;/div&gt;&lt;/div&gt;&lt;div&gt;&lt;span style=&quot;background-color: transparent; color: light-dark(rgb(0, 0, 0), rgb(255, 255, 255));&quot;&gt;&lt;br&gt;&lt;/span&gt;&lt;/div&gt;" style="rounded=1;fillColor=#dae8fc;strokeColor=#6c8ebf;strokeWidth=3;shadow=0;html=1;align=left;" vertex="1" parent="1">
          <mxGeometry x="-384.37" y="1440" width="286.25" height="130" as="geometry" />
        </mxCell>
        <mxCell id="ozscDCPrVm2I_ryFBJd1-1596" value="&lt;div&gt;&lt;b&gt;Риск утечки объявления&lt;span style=&quot;background-color: transparent; color: light-dark(rgb(0, 0, 0), rgb(255, 255, 255));&quot;&gt;&amp;nbsp;&lt;/span&gt;&lt;/b&gt;&lt;b style=&quot;background-color: transparent; color: light-dark(rgb(0, 0, 0), rgb(255, 255, 255));&quot;&gt;(утечка по ISO)&lt;/b&gt;&lt;/div&gt;&lt;div&gt;Качественная оценка - незначительный&lt;/div&gt;&lt;div&gt;Вероятность - высокая:&amp;nbsp;&lt;/div&gt;&lt;div&gt;- отсутствие водяных знаков на видео&lt;/div&gt;" style="rounded=1;fillColor=#dae8fc;strokeColor=#6c8ebf;strokeWidth=3;shadow=0;html=1;align=left;" vertex="1" parent="1">
          <mxGeometry x="-380" y="1330" width="280" height="72.25" as="geometry" />
        </mxCell>
        <mxCell id="ozscDCPrVm2I_ryFBJd1-1597" value="&lt;div&gt;Объект может быть показан на другой площадке =&amp;gt;&lt;/div&gt;&lt;div&gt;&amp;nbsp;потеря комиссионных отчислений,&amp;nbsp;&lt;/div&gt;&lt;div&gt;снижение лояльности продавца,&amp;nbsp;&lt;/div&gt;&lt;div&gt;обесценивание контента =&amp;gt;&amp;nbsp;&lt;/div&gt;&lt;div&gt;&lt;span style=&quot;background-color: transparent; color: light-dark(rgb(0, 0, 0), rgb(255, 255, 255));&quot;&gt;можно устранить с помощью водяных знаков на видео и&amp;nbsp;&lt;/span&gt;&lt;/div&gt;&lt;div&gt;&lt;span style=&quot;background-color: transparent; color: light-dark(rgb(0, 0, 0), rgb(255, 255, 255));&quot;&gt;псевдонимизации контактов продавца&amp;nbsp;&lt;/span&gt;&lt;/div&gt;" style="rounded=1;strokeWidth=3;shadow=0;html=1;align=left;" vertex="1" parent="1">
          <mxGeometry x="-794.37" y="1330" width="401" height="100" as="geometry" />
        </mxCell>
        <mxCell id="ozscDCPrVm2I_ryFBJd1-1600" value="&lt;div&gt;Недотупность контента =&amp;gt;&lt;/div&gt;&lt;div&gt;&amp;nbsp;потеря клиентов и конкурентных преимуществ&lt;span style=&quot;background-color: transparent; color: light-dark(rgb(0, 0, 0), rgb(255, 255, 255));&quot;&gt;&amp;nbsp;=&amp;gt;&amp;nbsp;&lt;/span&gt;&lt;/div&gt;&lt;div&gt;ограниченные финансовые, репутационные издержки.&amp;nbsp;&lt;/div&gt;&lt;div&gt;Покупка квартиры возможна и без онлайн-тура&lt;/div&gt;" style="rounded=1;strokeWidth=3;shadow=0;html=1;align=left;" vertex="1" parent="1">
          <mxGeometry x="-794.37" y="1440" width="400" height="60" as="geometry" />
        </mxCell>
        <mxCell id="ozscDCPrVm2I_ryFBJd1-1603" value="" style="endArrow=none;strokeWidth=3;strokeColor=#64BBE2;html=1;exitX=0;exitY=0.25;exitDx=0;exitDy=0;entryX=1;entryY=0.25;entryDx=0;entryDy=0;" edge="1" parent="1" source="ozscDCPrVm2I_ryFBJd1-1581" target="ozscDCPrVm2I_ryFBJd1-1596">
          <mxGeometry x="3.5" y="21.5" width="100" height="100" as="geometry">
            <mxPoint x="416" y="1230" as="sourcePoint" />
            <mxPoint x="150" y="1756" as="targetPoint" />
          </mxGeometry>
        </mxCell>
        <mxCell id="ozscDCPrVm2I_ryFBJd1-1604" value="" style="endArrow=none;strokeWidth=3;strokeColor=#64BBE2;html=1;exitX=0;exitY=0.5;exitDx=0;exitDy=0;entryX=1;entryY=0.25;entryDx=0;entryDy=0;" edge="1" parent="1" source="ozscDCPrVm2I_ryFBJd1-1581" target="ozscDCPrVm2I_ryFBJd1-1595">
          <mxGeometry x="3.5" y="21.5" width="100" height="100" as="geometry">
            <mxPoint x="207" y="1351" as="sourcePoint" />
            <mxPoint x="-50" y="1350" as="targetPoint" />
          </mxGeometry>
        </mxCell>
        <mxCell id="ozscDCPrVm2I_ryFBJd1-1605" value="&lt;div&gt;&lt;b&gt;tenant-core-app&lt;/b&gt;&lt;/div&gt;&lt;b&gt;Объект&amp;nbsp;&lt;/b&gt;&lt;span style=&quot;background-color: transparent; color: light-dark(rgb(255, 255, 255), rgb(18, 18, 18));&quot;&gt;&lt;b&gt;недвижимости&lt;/b&gt;:&amp;nbsp;&lt;/span&gt;&lt;div&gt;&lt;span style=&quot;background-color: transparent; color: light-dark(rgb(255, 255, 255), rgb(18, 18, 18));&quot;&gt;- состояние умного дома&lt;br&gt;&lt;/span&gt;&lt;/div&gt;&lt;div&gt;&lt;span style=&quot;background-color: transparent; color: light-dark(rgb(255, 255, 255), rgb(18, 18, 18));&quot;&gt;- адрес&lt;/span&gt;&lt;/div&gt;" style="rounded=1;fillColor=#a29dc5;strokeColor=none;strokeWidth=3;shadow=0;html=1;fontColor=#FFFFFF;align=left;" vertex="1" parent="1">
          <mxGeometry x="155.5" y="1600" width="180.25" height="67.75" as="geometry" />
        </mxCell>
        <mxCell id="ozscDCPrVm2I_ryFBJd1-1607" value="" style="edgeStyle=none;endArrow=none;strokeWidth=3;strokeColor=#A29DC5;html=1;entryX=1;entryY=0.5;entryDx=0;entryDy=0;exitX=0;exitY=0.25;exitDx=0;exitDy=0;" edge="1" parent="1" source="ozscDCPrVm2I_ryFBJd1-1605" target="ozscDCPrVm2I_ryFBJd1-1615">
          <mxGeometry x="-1498" y="-303.5" width="100" height="100" as="geometry">
            <mxPoint x="562" y="1530" as="sourcePoint" />
            <mxPoint x="-103.75" y="1632.5" as="targetPoint" />
          </mxGeometry>
        </mxCell>
        <mxCell id="ozscDCPrVm2I_ryFBJd1-1608" value="&lt;div style=&quot;padding-top: 0px;&quot;&gt;&lt;b&gt;Риск искажения данных (целостность по ISO)&lt;/b&gt;&lt;/div&gt;&lt;div style=&quot;padding-top: 0px;&quot;&gt;Качественная оценка - критический:&lt;/div&gt;&lt;div style=&quot;padding-top: 0px;&quot;&gt;- может повлиять на сохранность имущества&amp;nbsp;&lt;/div&gt;&lt;div style=&quot;padding-top: 0px;&quot;&gt;&lt;span style=&quot;background-color: transparent; color: light-dark(rgb(0, 0, 0), rgb(255, 255, 255));&quot;&gt;Вероятность - низкая:&amp;nbsp;&lt;/span&gt;&lt;/div&gt;&lt;div style=&quot;padding-top: 0px;&quot;&gt;- злонамеренная подмена технически сложна&amp;nbsp;&lt;/div&gt;&lt;div style=&quot;padding-top: 0px;&quot;&gt;- несанкционированный доступ&amp;nbsp;&lt;/div&gt;&lt;div style=&quot;padding-top: 0px;&quot;&gt;из-за проблем с авторизацией&lt;/div&gt;&lt;div style=&quot;padding-top: 0px;&quot;&gt;- технические сбои при&amp;nbsp;&lt;/div&gt;&lt;div style=&quot;padding-top: 0px;&quot;&gt;форматировании/сериализации/передаче&lt;/div&gt;" style="rounded=1;fillColor=#e1d5e7;strokeColor=#9673a6;strokeWidth=3;shadow=0;html=1;align=left;" vertex="1" parent="1">
          <mxGeometry x="-390" y="1667.75" width="290" height="143.5" as="geometry" />
        </mxCell>
        <mxCell id="ozscDCPrVm2I_ryFBJd1-1609" value="&lt;div&gt;&lt;b&gt;Риск потери данных&amp;nbsp;&lt;/b&gt;&lt;b style=&quot;background-color: transparent; color: light-dark(rgb(0, 0, 0), rgb(255, 255, 255));&quot;&gt;(доступность по ISO)&lt;/b&gt;&lt;/div&gt;&lt;div&gt;&lt;span style=&quot;background-color: transparent; color: light-dark(rgb(0, 0, 0), rgb(255, 255, 255));&quot;&gt;Качественная оценка - критический&lt;/span&gt;&lt;/div&gt;&lt;div&gt;&lt;span style=&quot;background-color: transparent; color: light-dark(rgb(0, 0, 0), rgb(255, 255, 255));&quot;&gt;-&amp;nbsp;&lt;/span&gt;может повлиять на сохранность имущества&lt;span style=&quot;background-color: transparent; color: light-dark(rgb(0, 0, 0), rgb(255, 255, 255));&quot;&gt;&amp;nbsp;&lt;/span&gt;&lt;/div&gt;&lt;div&gt;&lt;span style=&quot;background-color: transparent; color: light-dark(rgb(0, 0, 0), rgb(255, 255, 255));&quot;&gt;в бизнес-процессах&amp;nbsp;&lt;/span&gt;&lt;/div&gt;&lt;div&gt;&lt;span style=&quot;background-color: transparent; color: light-dark(rgb(0, 0, 0), rgb(255, 255, 255));&quot;&gt;Вероятность - средняя&lt;/span&gt;&lt;/div&gt;&lt;div&gt;&lt;span style=&quot;background-color: transparent; color: light-dark(rgb(0, 0, 0), rgb(255, 255, 255));&quot;&gt;- DDoS атаки&lt;/span&gt;&lt;/div&gt;&lt;div&gt;&lt;div style=&quot;padding-top: 0px;&quot;&gt;- несанкционированного доступа&amp;nbsp;&lt;/div&gt;&lt;div style=&quot;padding-top: 0px;&quot;&gt;из-за проблем с авторизацией&lt;/div&gt;&lt;/div&gt;&lt;div&gt;&lt;span style=&quot;background-color: transparent; color: light-dark(rgb(0, 0, 0), rgb(255, 255, 255));&quot;&gt;&lt;br&gt;&lt;/span&gt;&lt;/div&gt;" style="rounded=1;fillColor=#e1d5e7;strokeColor=#9673a6;strokeWidth=3;shadow=0;html=1;align=left;" vertex="1" parent="1">
          <mxGeometry x="-390" y="1820" width="290" height="130" as="geometry" />
        </mxCell>
        <mxCell id="ozscDCPrVm2I_ryFBJd1-1610" value="" style="edgeStyle=none;endArrow=none;strokeWidth=3;strokeColor=#A29DC5;html=1;entryX=1;entryY=0.25;entryDx=0;entryDy=0;exitX=0;exitY=0.5;exitDx=0;exitDy=0;" edge="1" parent="1" source="ozscDCPrVm2I_ryFBJd1-1605" target="ozscDCPrVm2I_ryFBJd1-1608">
          <mxGeometry x="-1498" y="-303.5" width="100" height="100" as="geometry">
            <mxPoint x="354" y="1990" as="sourcePoint" />
            <mxPoint x="100" y="2006" as="targetPoint" />
          </mxGeometry>
        </mxCell>
        <mxCell id="ozscDCPrVm2I_ryFBJd1-1611" value="" style="edgeStyle=none;endArrow=none;strokeWidth=3;strokeColor=#A29DC5;html=1;entryX=1;entryY=0.25;entryDx=0;entryDy=0;exitX=0;exitY=0.75;exitDx=0;exitDy=0;" edge="1" parent="1" source="ozscDCPrVm2I_ryFBJd1-1605" target="ozscDCPrVm2I_ryFBJd1-1609">
          <mxGeometry x="-1498" y="-303.5" width="100" height="100" as="geometry">
            <mxPoint x="294" y="1830" as="sourcePoint" />
            <mxPoint x="40" y="1846" as="targetPoint" />
          </mxGeometry>
        </mxCell>
        <mxCell id="ozscDCPrVm2I_ryFBJd1-1612" value="&lt;div&gt;Злоумышленник может использовать данные умного дома для&amp;nbsp;&lt;/div&gt;&lt;div&gt;проникновения в жилище =&amp;gt;&amp;nbsp;&lt;span style=&quot;background-color: transparent; color: light-dark(rgb(0, 0, 0), rgb(255, 255, 255));&quot;&gt;материальный, репутационный ущерб,&amp;nbsp;&lt;/span&gt;&lt;/div&gt;&lt;div&gt;&lt;span style=&quot;background-color: transparent; color: light-dark(rgb(0, 0, 0), rgb(255, 255, 255));&quot;&gt;юридические последствия&amp;nbsp;&lt;/span&gt;&lt;/div&gt;" style="rounded=1;strokeWidth=3;shadow=0;html=1;align=left;" vertex="1" parent="1">
          <mxGeometry x="-810" y="1600" width="401" height="60" as="geometry" />
        </mxCell>
        <mxCell id="ozscDCPrVm2I_ryFBJd1-1613" value="&lt;div&gt;Клиент не сможет удаленно заблокировать дверь =&amp;gt;&lt;/div&gt;&lt;div&gt;&lt;span style=&quot;background-color: transparent; color: light-dark(rgb(0, 0, 0), rgb(255, 255, 255));&quot;&gt;в дом могут попасть посторонние, либо выйти домашние животные =&amp;gt;&amp;nbsp;&lt;/span&gt;&lt;/div&gt;&lt;div&gt;&lt;div&gt;&lt;span style=&quot;background-color: transparent; color: light-dark(rgb(0, 0, 0), rgb(255, 255, 255));&quot;&gt;материальный, репутационный ущерб,&amp;nbsp;&lt;/span&gt;&lt;/div&gt;&lt;div&gt;&lt;span style=&quot;background-color: transparent; color: light-dark(rgb(0, 0, 0), rgb(255, 255, 255));&quot;&gt;юридические последствия&amp;nbsp;&lt;/span&gt;&lt;/div&gt;&lt;/div&gt;" style="rounded=1;strokeWidth=3;shadow=0;html=1;align=left;" vertex="1" parent="1">
          <mxGeometry x="-810" y="1670" width="401" height="70" as="geometry" />
        </mxCell>
        <mxCell id="ozscDCPrVm2I_ryFBJd1-1614" value="&lt;div&gt;Клиент не сможет удаленно заблокировать дверь =&amp;gt;&lt;/div&gt;&lt;div&gt;&lt;span style=&quot;background-color: transparent; color: light-dark(rgb(0, 0, 0), rgb(255, 255, 255));&quot;&gt;в дом могут попасть посторонние, либо выйти домашние животные =&amp;gt;&amp;nbsp;&lt;/span&gt;&lt;/div&gt;&lt;div&gt;&lt;div&gt;&lt;span style=&quot;background-color: transparent; color: light-dark(rgb(0, 0, 0), rgb(255, 255, 255));&quot;&gt;материальный, репутационный ущерб,&amp;nbsp;&lt;/span&gt;&lt;/div&gt;&lt;div&gt;&lt;span style=&quot;background-color: transparent; color: light-dark(rgb(0, 0, 0), rgb(255, 255, 255));&quot;&gt;юридические последствия&amp;nbsp;&lt;/span&gt;&lt;/div&gt;&lt;/div&gt;" style="rounded=1;strokeWidth=3;shadow=0;html=1;align=left;" vertex="1" parent="1">
          <mxGeometry x="-810" y="1820" width="401" height="70" as="geometry" />
        </mxCell>
        <mxCell id="ozscDCPrVm2I_ryFBJd1-1615" value="&lt;div&gt;&lt;b&gt;Риск утечки&lt;span style=&quot;background-color: transparent; color: light-dark(rgb(0, 0, 0), rgb(255, 255, 255));&quot;&gt;&amp;nbsp;&lt;/span&gt;&lt;/b&gt;&lt;b style=&quot;background-color: transparent; color: light-dark(rgb(0, 0, 0), rgb(255, 255, 255));&quot;&gt;(утечка по ISO)&lt;/b&gt;&lt;/div&gt;&lt;div&gt;Качественная оценка - критический&lt;/div&gt;&lt;div&gt;Вероятность - средняя&lt;/div&gt;" style="rounded=1;fillColor=#e1d5e7;strokeColor=#9673a6;strokeWidth=3;shadow=0;html=1;align=left;" vertex="1" parent="1">
          <mxGeometry x="-388.12" y="1600" width="290" height="57.75" as="geometry" />
        </mxCell>
        <mxCell id="ozscDCPrVm2I_ryFBJd1-1619" value="&lt;div style=&quot;color: rgb(0, 0, 0);&quot;&gt;&lt;b&gt;Риск утечки&lt;span style=&quot;background-color: transparent; color: light-dark(rgb(0, 0, 0), rgb(255, 255, 255));&quot;&gt;&amp;nbsp;&lt;/span&gt;&lt;/b&gt;&lt;b style=&quot;background-color: transparent; color: light-dark(rgb(0, 0, 0), rgb(255, 255, 255));&quot;&gt;(утечка по ISO)&lt;/b&gt;&lt;/div&gt;&lt;div style=&quot;color: rgb(0, 0, 0);&quot;&gt;Качественная оценка - некритичный&lt;span style=&quot;color: light-dark(rgb(0, 0, 0), rgb(237, 237, 237)); background-color: transparent;&quot;&gt;&amp;nbsp;&lt;/span&gt;&lt;/div&gt;&lt;div style=&quot;color: rgb(0, 0, 0);&quot;&gt;Вероятность - высокая&lt;br&gt;&lt;/div&gt;" style="rounded=1;fillColor=#fff2cc;strokeColor=#d6b656;strokeWidth=3;shadow=0;html=1;align=left;" vertex="1" parent="1">
          <mxGeometry x="2010" y="493.41" width="290" height="65" as="geometry" />
        </mxCell>
        <mxCell id="ozscDCPrVm2I_ryFBJd1-1620" value="&lt;div style=&quot;padding-top: 0px;&quot;&gt;&lt;b&gt;Риск искажения данных (целостность по ISO)&lt;/b&gt;&lt;/div&gt;&lt;div style=&quot;padding-top: 0px;&quot;&gt;Качественная оценка - некритичный&lt;/div&gt;&lt;div style=&quot;padding-top: 0px;&quot;&gt;Вероятность - низкая&lt;br&gt;&lt;/div&gt;" style="rounded=1;fillColor=#fff2cc;strokeColor=#d6b656;strokeWidth=3;shadow=0;html=1;align=left;" vertex="1" parent="1">
          <mxGeometry x="2010" y="565" width="287.5" height="63.5" as="geometry" />
        </mxCell>
        <mxCell id="ozscDCPrVm2I_ryFBJd1-1621" value="" style="edgeStyle=none;endArrow=none;strokeWidth=3;strokeColor=#F5AF58;html=1;exitX=1;exitY=0.75;exitDx=0;exitDy=0;entryX=0;entryY=0.25;entryDx=0;entryDy=0;" edge="1" parent="1" source="1392" target="ozscDCPrVm2I_ryFBJd1-1620">
          <mxGeometry x="3.5" y="21.5" width="100" height="100" as="geometry">
            <mxPoint x="2010" y="876" as="sourcePoint" />
            <mxPoint x="2056" y="770" as="targetPoint" />
          </mxGeometry>
        </mxCell>
        <mxCell id="ozscDCPrVm2I_ryFBJd1-1622" value="&lt;div&gt;&amp;nbsp;При обнаружении подмены маркетинговых данных,&amp;nbsp;&lt;/div&gt;&lt;div&gt;их можно опровергнуть&lt;/div&gt;" style="rounded=1;strokeWidth=3;shadow=0;html=1;align=left;" vertex="1" parent="1">
          <mxGeometry x="2310" y="560" width="401" height="61.5" as="geometry" />
        </mxCell>
        <mxCell id="ozscDCPrVm2I_ryFBJd1-1623" value="&lt;div&gt;Данные предназначены для распространения&lt;/div&gt;" style="rounded=1;strokeWidth=3;shadow=0;html=1;align=left;" vertex="1" parent="1">
          <mxGeometry x="2311" y="493.41" width="401" height="34.56" as="geometry" />
        </mxCell>
        <mxCell id="ozscDCPrVm2I_ryFBJd1-1625" value="&lt;b style=&quot;&quot;&gt;client-mart-app&lt;/b&gt;&lt;div&gt;&lt;b&gt;информация о компании&lt;/b&gt;&lt;/div&gt;" style="rounded=1;fillColor=#f5af58;strokeColor=none;strokeWidth=3;shadow=0;html=1;fontColor=#FFFFFF;align=left;" vertex="1" parent="1">
          <mxGeometry x="1770" y="471.5" width="180" height="50" as="geometry" />
        </mxCell>
        <mxCell id="ozscDCPrVm2I_ryFBJd1-1626" value="" style="edgeStyle=none;endArrow=none;strokeWidth=3;strokeColor=#F5AF58;html=1;entryX=0;entryY=0.25;entryDx=0;entryDy=0;exitX=1;exitY=0.5;exitDx=0;exitDy=0;" edge="1" parent="1" source="1351" target="ozscDCPrVm2I_ryFBJd1-1625">
          <mxGeometry x="3.5" y="21.5" width="100" height="100" as="geometry">
            <mxPoint x="1740" y="590" as="sourcePoint" />
            <mxPoint x="1848" y="650" as="targetPoint" />
          </mxGeometry>
        </mxCell>
        <mxCell id="ozscDCPrVm2I_ryFBJd1-1627" value="" style="edgeStyle=none;endArrow=none;strokeWidth=3;strokeColor=#F5AF58;html=1;exitX=1;exitY=0.5;exitDx=0;exitDy=0;entryX=0;entryY=0.5;entryDx=0;entryDy=0;" edge="1" parent="1" source="ozscDCPrVm2I_ryFBJd1-1625" target="ozscDCPrVm2I_ryFBJd1-1619">
          <mxGeometry x="3.5" y="21.5" width="100" height="100" as="geometry">
            <mxPoint x="1980" y="612" as="sourcePoint" />
            <mxPoint x="2036" y="590" as="targetPoint" />
            <Array as="points" />
          </mxGeometry>
        </mxCell>
        <mxCell id="ozscDCPrVm2I_ryFBJd1-1629" value="" style="edgeStyle=none;endArrow=none;strokeWidth=3;strokeColor=#F5AF58;html=1;exitX=1;exitY=0.5;exitDx=0;exitDy=0;entryX=0;entryY=0.25;entryDx=0;entryDy=0;" edge="1" parent="1" source="ozscDCPrVm2I_ryFBJd1-1625" target="ozscDCPrVm2I_ryFBJd1-1620">
          <mxGeometry x="3.5" y="21.5" width="100" height="100" as="geometry">
            <mxPoint x="1980" y="540" as="sourcePoint" />
            <mxPoint x="2036" y="632" as="targetPoint" />
            <Array as="points" />
          </mxGeometry>
        </mxCell>
        <mxCell id="ozscDCPrVm2I_ryFBJd1-1630" value="&lt;div style=&quot;color: rgb(0, 0, 0);&quot;&gt;&lt;b&gt;Риск утечки&lt;span style=&quot;background-color: transparent; color: light-dark(rgb(0, 0, 0), rgb(255, 255, 255));&quot;&gt;&amp;nbsp;&lt;/span&gt;&lt;/b&gt;&lt;b style=&quot;background-color: transparent; color: light-dark(rgb(0, 0, 0), rgb(255, 255, 255));&quot;&gt;(утечка по ISO)&lt;/b&gt;&lt;/div&gt;&lt;div style=&quot;color: rgb(0, 0, 0);&quot;&gt;Качественная оценка - критический&lt;/div&gt;&lt;div style=&quot;color: rgb(0, 0, 0);&quot;&gt;- может повлечь юридические последствия&amp;nbsp;&lt;/div&gt;&lt;div style=&quot;color: rgb(0, 0, 0);&quot;&gt;Вероятность - низкая:&amp;nbsp;&lt;/div&gt;&lt;div style=&quot;color: rgb(0, 0, 0);&quot;&gt;- технически сложно&lt;/div&gt;" style="rounded=1;fillColor=#f8cecc;strokeColor=#b85450;strokeWidth=3;shadow=0;html=1;align=left;" vertex="1" parent="1">
          <mxGeometry x="2008.75" y="1400" width="290" height="65" as="geometry" />
        </mxCell>
        <mxCell id="ozscDCPrVm2I_ryFBJd1-1631" value="&lt;div style=&quot;padding-top: 0px;&quot;&gt;&lt;b&gt;Риск искажения данных (целостность по ISO)&lt;/b&gt;&lt;/div&gt;&lt;div style=&quot;padding-top: 0px;&quot;&gt;Качественная оценка - критический:&lt;/div&gt;&lt;div style=&quot;padding-top: 0px;&quot;&gt;- может повлечь юридические последствия&amp;nbsp;&lt;/div&gt;&lt;div style=&quot;padding-top: 0px;&quot;&gt;клиентов&lt;/div&gt;&lt;div style=&quot;padding-top: 0px;&quot;&gt;Вероятность - низкая:&amp;nbsp;&lt;/div&gt;&lt;div style=&quot;padding-top: 0px;&quot;&gt;- злонамеренная подмена технически сложна&amp;nbsp;&lt;/div&gt;&lt;div style=&quot;padding-top: 0px;&quot;&gt;- несанкционированный доступ&amp;nbsp;&lt;/div&gt;&lt;div style=&quot;padding-top: 0px;&quot;&gt;из-за проблем с авторизацией&lt;/div&gt;&lt;div style=&quot;padding-top: 0px;&quot;&gt;&lt;br&gt;&lt;/div&gt;" style="rounded=1;fillColor=#f8cecc;strokeColor=#b85450;strokeWidth=3;shadow=0;html=1;align=left;" vertex="1" parent="1">
          <mxGeometry x="2008.75" y="1473.25" width="287.5" height="126.75" as="geometry" />
        </mxCell>
        <mxCell id="ozscDCPrVm2I_ryFBJd1-1632" value="&lt;div&gt;&lt;b&gt;Риск потери данных&amp;nbsp;&lt;/b&gt;&lt;b style=&quot;background-color: transparent; color: light-dark(rgb(0, 0, 0), rgb(255, 255, 255));&quot;&gt;(доступность по ISO)&lt;/b&gt;&lt;/div&gt;&lt;div&gt;&lt;span style=&quot;background-color: transparent; color: light-dark(rgb(0, 0, 0), rgb(255, 255, 255));&quot;&gt;Качественная оценка - значительный&lt;/span&gt;&lt;/div&gt;&lt;div&gt;&lt;span style=&quot;background-color: transparent; color: light-dark(rgb(0, 0, 0), rgb(255, 255, 255));&quot;&gt;- сбой приведет к ощутимым задержкам&amp;nbsp;&lt;/span&gt;&lt;/div&gt;&lt;div&gt;&lt;span style=&quot;background-color: transparent; color: light-dark(rgb(0, 0, 0), rgb(255, 255, 255));&quot;&gt;в бизнес-процессах&amp;nbsp;&lt;/span&gt;&lt;/div&gt;&lt;div&gt;&lt;span style=&quot;background-color: transparent; color: light-dark(rgb(0, 0, 0), rgb(255, 255, 255));&quot;&gt;Вероятность - средняя&lt;/span&gt;&lt;/div&gt;&lt;div&gt;&lt;span style=&quot;background-color: transparent; color: light-dark(rgb(0, 0, 0), rgb(255, 255, 255));&quot;&gt;- DDoS атаки&lt;/span&gt;&lt;/div&gt;&lt;div&gt;&lt;div style=&quot;padding-top: 0px;&quot;&gt;- несанкционированного доступа&amp;nbsp;&lt;/div&gt;&lt;div style=&quot;padding-top: 0px;&quot;&gt;из-за проблем с авторизацией&lt;/div&gt;&lt;/div&gt;&lt;div&gt;&lt;span style=&quot;background-color: transparent; color: light-dark(rgb(0, 0, 0), rgb(255, 255, 255));&quot;&gt;&lt;br&gt;&lt;/span&gt;&lt;/div&gt;" style="rounded=1;fillColor=#f8cecc;strokeColor=#b85450;strokeWidth=3;shadow=0;html=1;align=left;" vertex="1" parent="1">
          <mxGeometry x="2009.38" y="1610" width="286.25" height="130" as="geometry" />
        </mxCell>
        <mxCell id="ozscDCPrVm2I_ryFBJd1-1633" value="" style="endArrow=none;strokeWidth=3;strokeColor=#F08E81;html=1;entryX=1.005;entryY=0.89;entryDx=0;entryDy=0;entryPerimeter=0;exitX=0;exitY=0.25;exitDx=0;exitDy=0;" edge="1" parent="1" source="ozscDCPrVm2I_ryFBJd1-1632" target="1500">
          <mxGeometry x="188.5" y="51.5" width="100" height="100" as="geometry">
            <mxPoint x="1980" y="1580" as="sourcePoint" />
            <mxPoint x="1950" y="1487" as="targetPoint" />
          </mxGeometry>
        </mxCell>
        <mxCell id="ozscDCPrVm2I_ryFBJd1-1634" value="" style="edgeStyle=none;endArrow=none;strokeWidth=3;strokeColor=#F08E81;html=1;exitX=1;exitY=0.25;exitDx=0;exitDy=0;entryX=0;entryY=0.25;entryDx=0;entryDy=0;" edge="1" parent="1" source="1500" target="ozscDCPrVm2I_ryFBJd1-1630">
          <mxGeometry x="188.5" y="51.5" width="100" height="100" as="geometry">
            <mxPoint x="2000" y="1400" as="sourcePoint" />
            <mxPoint x="2150" y="1497" as="targetPoint" />
          </mxGeometry>
        </mxCell>
        <mxCell id="ozscDCPrVm2I_ryFBJd1-1635" value="" style="edgeStyle=none;endArrow=none;strokeWidth=3;strokeColor=#F08E81;html=1;entryX=0;entryY=0.25;entryDx=0;entryDy=0;exitX=1;exitY=0.5;exitDx=0;exitDy=0;" edge="1" parent="1" source="1500" target="ozscDCPrVm2I_ryFBJd1-1631">
          <mxGeometry x="188.5" y="51.5" width="100" height="100" as="geometry">
            <mxPoint x="1930" y="1560" as="sourcePoint" />
            <mxPoint x="2110" y="1607" as="targetPoint" />
          </mxGeometry>
        </mxCell>
        <mxCell id="ozscDCPrVm2I_ryFBJd1-1636" value="&lt;div&gt;Утечка может привести к взлому аккаунтов =&amp;gt;&lt;/div&gt;&lt;div&gt;&amp;nbsp;&lt;span style=&quot;background-color: transparent; color: light-dark(rgb(0, 0, 0), rgb(255, 255, 255));&quot;&gt;серьезные репутационные последствия или юридические&amp;nbsp;&lt;/span&gt;&lt;/div&gt;&lt;div&gt;&lt;span style=&quot;background-color: transparent; color: light-dark(rgb(0, 0, 0), rgb(255, 255, 255));&quot;&gt;последствия&lt;br&gt;&lt;/span&gt;&lt;/div&gt;" style="rounded=1;strokeWidth=3;shadow=0;html=1;align=left;" vertex="1" parent="1">
          <mxGeometry x="2310" y="1402.25" width="400" height="47.75" as="geometry" />
        </mxCell>
        <mxCell id="ozscDCPrVm2I_ryFBJd1-1637" value="&lt;div&gt;Искажение может привести&amp;nbsp;к взлому аккаунтов =&amp;gt;&lt;/div&gt;&lt;div&gt;&amp;nbsp;&lt;span style=&quot;background-color: transparent; color: light-dark(rgb(0, 0, 0), rgb(255, 255, 255));&quot;&gt;серьезные репутационные последствия или юридические&amp;nbsp;&lt;/span&gt;&lt;/div&gt;&lt;div&gt;&lt;span style=&quot;background-color: transparent; color: light-dark(rgb(0, 0, 0), rgb(255, 255, 255));&quot;&gt;последствия&lt;br&gt;&lt;/span&gt;&lt;/div&gt;" style="rounded=1;strokeWidth=3;shadow=0;html=1;align=left;" vertex="1" parent="1">
          <mxGeometry x="2310" y="1480" width="400" height="47.75" as="geometry" />
        </mxCell>
        <mxCell id="ozscDCPrVm2I_ryFBJd1-1638" value="&lt;div&gt;Временная блокировка функционла системы&lt;/div&gt;" style="rounded=1;strokeWidth=3;shadow=0;html=1;align=left;" vertex="1" parent="1">
          <mxGeometry x="2311" y="1612.25" width="400" height="47.75" as="geometry" />
        </mxCell>
        <mxCell id="ozscDCPrVm2I_ryFBJd1-1639" value="&lt;div&gt;&lt;b&gt;tenant-core-app&lt;/b&gt;&lt;/div&gt;&lt;span style=&quot;background-color: transparent; color: light-dark(rgb(255, 255, 255), rgb(18, 18, 18));&quot;&gt;&lt;b&gt;Данные платежных транзакций&lt;/b&gt;:&amp;nbsp;&lt;/span&gt;&lt;div&gt;&lt;span style=&quot;background-color: transparent; color: light-dark(rgb(255, 255, 255), rgb(18, 18, 18));&quot;&gt;- история&lt;br&gt;&lt;/span&gt;&lt;/div&gt;&lt;div&gt;&lt;span style=&quot;background-color: transparent; color: light-dark(rgb(255, 255, 255), rgb(18, 18, 18));&quot;&gt;- данные транзакций&lt;/span&gt;&lt;/div&gt;" style="rounded=1;fillColor=#a29dc5;strokeColor=none;strokeWidth=3;shadow=0;html=1;fontColor=#FFFFFF;align=left;" vertex="1" parent="1">
          <mxGeometry x="149.5" y="1962" width="200.5" height="67.75" as="geometry" />
        </mxCell>
        <mxCell id="ozscDCPrVm2I_ryFBJd1-1640" value="" style="edgeStyle=none;endArrow=none;strokeWidth=3;strokeColor=#A29DC5;html=1;entryX=1;entryY=0.25;entryDx=0;entryDy=0;exitX=0.5;exitY=1;exitDx=0;exitDy=0;" edge="1" parent="1" source="1516" target="ozscDCPrVm2I_ryFBJd1-1639">
          <mxGeometry x="-1498" y="-303.5" width="100" height="100" as="geometry">
            <mxPoint x="597" y="1490" as="sourcePoint" />
            <mxPoint x="330" y="1776" as="targetPoint" />
          </mxGeometry>
        </mxCell>
        <mxCell id="ozscDCPrVm2I_ryFBJd1-1641" value="&lt;div style=&quot;padding-top: 0px;&quot;&gt;&lt;b&gt;Риск искажения данных (целостность по ISO)&lt;/b&gt;&lt;/div&gt;&lt;div style=&quot;padding-top: 0px;&quot;&gt;Качественная оценка - критический:&lt;/div&gt;&lt;div style=&quot;padding-top: 0px;&quot;&gt;- проблемы с отчетностью&lt;/div&gt;&lt;div style=&quot;padding-top: 0px;&quot;&gt;- нарушение контроля взаиморасчетов&lt;/div&gt;&lt;div style=&quot;padding-top: 0px;&quot;&gt;&lt;span style=&quot;background-color: transparent; color: light-dark(rgb(0, 0, 0), rgb(255, 255, 255));&quot;&gt;Вероятность - низкая:&amp;nbsp;&lt;/span&gt;&lt;/div&gt;&lt;div style=&quot;padding-top: 0px;&quot;&gt;- злонамеренная подмена технически сложна&amp;nbsp;&lt;/div&gt;&lt;div style=&quot;padding-top: 0px;&quot;&gt;- несанкционированный доступ&amp;nbsp;&lt;/div&gt;&lt;div style=&quot;padding-top: 0px;&quot;&gt;из-за проблем с авторизацией&lt;/div&gt;&lt;div style=&quot;padding-top: 0px;&quot;&gt;- технические сбои при&amp;nbsp;&lt;/div&gt;&lt;div style=&quot;padding-top: 0px;&quot;&gt;форматировании/сериализации/передаче&lt;/div&gt;" style="rounded=1;fillColor=#e1d5e7;strokeColor=#9673a6;strokeWidth=3;shadow=0;html=1;align=left;" vertex="1" parent="1">
          <mxGeometry x="-391.49" y="2049" width="290" height="143.5" as="geometry" />
        </mxCell>
        <mxCell id="ozscDCPrVm2I_ryFBJd1-1642" value="&lt;div&gt;&lt;b&gt;Риск потери данных&amp;nbsp;&lt;/b&gt;&lt;b style=&quot;background-color: transparent; color: light-dark(rgb(0, 0, 0), rgb(255, 255, 255));&quot;&gt;(доступность по ISO)&lt;/b&gt;&lt;/div&gt;&lt;div&gt;&lt;span style=&quot;background-color: transparent; color: light-dark(rgb(0, 0, 0), rgb(255, 255, 255));&quot;&gt;Качественная оценка - критический&lt;/span&gt;&lt;/div&gt;&lt;div&gt;&lt;span style=&quot;background-color: transparent; color: light-dark(rgb(0, 0, 0), rgb(255, 255, 255));&quot;&gt;-&amp;nbsp;&lt;/span&gt;может повлиять на сохранность имущества&lt;span style=&quot;background-color: transparent; color: light-dark(rgb(0, 0, 0), rgb(255, 255, 255));&quot;&gt;&amp;nbsp;&lt;/span&gt;&lt;/div&gt;&lt;div&gt;&lt;span style=&quot;background-color: transparent; color: light-dark(rgb(0, 0, 0), rgb(255, 255, 255));&quot;&gt;в бизнес-процессах&amp;nbsp;&lt;/span&gt;&lt;/div&gt;&lt;div&gt;&lt;span style=&quot;background-color: transparent; color: light-dark(rgb(0, 0, 0), rgb(255, 255, 255));&quot;&gt;Вероятность - средняя&lt;/span&gt;&lt;/div&gt;&lt;div&gt;&lt;span style=&quot;background-color: transparent; color: light-dark(rgb(0, 0, 0), rgb(255, 255, 255));&quot;&gt;- DDoS атаки&lt;/span&gt;&lt;/div&gt;&lt;div&gt;&lt;div style=&quot;padding-top: 0px;&quot;&gt;- несанкционированного доступа&amp;nbsp;&lt;/div&gt;&lt;div style=&quot;padding-top: 0px;&quot;&gt;из-за проблем с авторизацией&lt;/div&gt;&lt;/div&gt;&lt;div&gt;&lt;span style=&quot;background-color: transparent; color: light-dark(rgb(0, 0, 0), rgb(255, 255, 255));&quot;&gt;&lt;br&gt;&lt;/span&gt;&lt;/div&gt;" style="rounded=1;fillColor=#e1d5e7;strokeColor=#9673a6;strokeWidth=3;shadow=0;html=1;align=left;" vertex="1" parent="1">
          <mxGeometry x="-395.62" y="2201" width="290" height="130" as="geometry" />
        </mxCell>
        <mxCell id="ozscDCPrVm2I_ryFBJd1-1643" value="&lt;div&gt;&lt;b&gt;Риск утечки&lt;span style=&quot;background-color: transparent; color: light-dark(rgb(0, 0, 0), rgb(255, 255, 255));&quot;&gt;&amp;nbsp;&lt;/span&gt;&lt;/b&gt;&lt;b style=&quot;background-color: transparent; color: light-dark(rgb(0, 0, 0), rgb(255, 255, 255));&quot;&gt;(утечка по ISO)&lt;/b&gt;&lt;/div&gt;&lt;div&gt;Качественная оценка - критический&lt;/div&gt;&lt;div&gt;- информация о последней транзакции моет&amp;nbsp;&lt;/div&gt;&lt;div&gt;быть использована при смене пароля к карте&lt;/div&gt;&lt;div&gt;Вероятность - средняя&lt;/div&gt;" style="rounded=1;fillColor=#e1d5e7;strokeColor=#9673a6;strokeWidth=3;shadow=0;html=1;align=left;" vertex="1" parent="1">
          <mxGeometry x="-391.49" y="1970" width="290" height="70" as="geometry" />
        </mxCell>
        <mxCell id="ozscDCPrVm2I_ryFBJd1-1644" value="" style="edgeStyle=none;endArrow=none;strokeWidth=3;strokeColor=#A29DC5;html=1;entryX=1;entryY=0.25;entryDx=0;entryDy=0;exitX=0.007;exitY=0.339;exitDx=0;exitDy=0;exitPerimeter=0;" edge="1" parent="1" source="ozscDCPrVm2I_ryFBJd1-1639" target="ozscDCPrVm2I_ryFBJd1-1643">
          <mxGeometry x="-1498" y="-303.5" width="100" height="100" as="geometry">
            <mxPoint x="236" y="1790" as="sourcePoint" />
            <mxPoint x="-20" y="1992" as="targetPoint" />
          </mxGeometry>
        </mxCell>
        <mxCell id="ozscDCPrVm2I_ryFBJd1-1645" value="" style="edgeStyle=none;endArrow=none;strokeWidth=3;strokeColor=#A29DC5;html=1;entryX=1;entryY=0.25;entryDx=0;entryDy=0;exitX=0;exitY=0.5;exitDx=0;exitDy=0;" edge="1" parent="1" source="ozscDCPrVm2I_ryFBJd1-1639" target="ozscDCPrVm2I_ryFBJd1-1641">
          <mxGeometry x="-1498" y="-303.5" width="100" height="100" as="geometry">
            <mxPoint x="262" y="1981" as="sourcePoint" />
            <mxPoint x="10" y="1980" as="targetPoint" />
          </mxGeometry>
        </mxCell>
        <mxCell id="ozscDCPrVm2I_ryFBJd1-1646" value="" style="edgeStyle=none;endArrow=none;strokeWidth=3;strokeColor=#A29DC5;html=1;entryX=0.996;entryY=0.135;entryDx=0;entryDy=0;exitX=0;exitY=0.75;exitDx=0;exitDy=0;entryPerimeter=0;" edge="1" parent="1" source="ozscDCPrVm2I_ryFBJd1-1639" target="ozscDCPrVm2I_ryFBJd1-1642">
          <mxGeometry x="-1498" y="-303.5" width="100" height="100" as="geometry">
            <mxPoint x="392" y="2191" as="sourcePoint" />
            <mxPoint x="140" y="2190" as="targetPoint" />
          </mxGeometry>
        </mxCell>
        <mxCell id="ozscDCPrVm2I_ryFBJd1-1647" value="&lt;div&gt;информация о последней транзакции моет&amp;nbsp;&lt;/div&gt;&lt;div&gt;&lt;span style=&quot;background-color: transparent; color: light-dark(rgb(0, 0, 0), rgb(255, 255, 255));&quot;&gt;быть использована при смене пароля к карте&lt;/span&gt;&lt;span style=&quot;background-color: transparent; color: light-dark(rgb(0, 0, 0), rgb(255, 255, 255));&quot;&gt;&amp;nbsp;=&amp;gt;&amp;nbsp;&lt;/span&gt;&lt;/div&gt;&lt;div&gt;&lt;span style=&quot;background-color: transparent; color: light-dark(rgb(0, 0, 0), rgb(255, 255, 255));&quot;&gt;репутационные, юридические последствия&lt;/span&gt;&lt;br&gt;&lt;/div&gt;" style="rounded=1;strokeWidth=3;shadow=0;html=1;align=left;" vertex="1" parent="1">
          <mxGeometry x="-810" y="1970" width="401" height="60" as="geometry" />
        </mxCell>
        <mxCell id="ozscDCPrVm2I_ryFBJd1-1648" value="&lt;div&gt;ошибки в бухгалтерской и налоговой отчетности =&amp;gt;&lt;/div&gt;&lt;div&gt;юридические и финансовые последствия&lt;/div&gt;" style="rounded=1;strokeWidth=3;shadow=0;html=1;align=left;" vertex="1" parent="1">
          <mxGeometry x="-810" y="2059" width="401" height="40" as="geometry" />
        </mxCell>
        <mxCell id="ozscDCPrVm2I_ryFBJd1-1649" value="&lt;div&gt;проблемы с бухгалтерской и налоговой отчетностью =&amp;gt;&lt;/div&gt;&lt;div&gt;юридические и финансовые последствия&lt;/div&gt;" style="rounded=1;strokeWidth=3;shadow=0;html=1;align=left;" vertex="1" parent="1">
          <mxGeometry x="-810" y="2201" width="401" height="50" as="geometry" />
        </mxCell>
        <mxCell id="ozscDCPrVm2I_ryFBJd1-1650" value="&lt;div&gt;ПД пользователей&lt;/div&gt;" style="rounded=1;fillColor=#a29dc5;strokeColor=none;strokeWidth=3;shadow=0;html=1;fontColor=#FFFFFF;align=left;" vertex="1" parent="1">
          <mxGeometry x="145.75" y="2391" width="200.5" height="30" as="geometry" />
        </mxCell>
        <mxCell id="ozscDCPrVm2I_ryFBJd1-1652" value="&lt;div style=&quot;padding-top: 0px;&quot;&gt;&lt;b&gt;Риск искажения данных (целостность по ISO)&lt;/b&gt;&lt;/div&gt;&lt;div style=&quot;padding-top: 0px;&quot;&gt;Качественная оценка - некитический:&lt;/div&gt;&lt;div style=&quot;padding-top: 0px;&quot;&gt;- проблемы с идентификацией клиента&lt;/div&gt;&lt;div style=&quot;padding-top: 0px;&quot;&gt;&lt;span style=&quot;background-color: transparent; color: light-dark(rgb(0, 0, 0), rgb(255, 255, 255));&quot;&gt;Вероятность - низкая:&amp;nbsp;&lt;/span&gt;&lt;/div&gt;&lt;div style=&quot;padding-top: 0px;&quot;&gt;- злонамеренная подмена технически сложна&amp;nbsp;&lt;/div&gt;&lt;div style=&quot;padding-top: 0px;&quot;&gt;- несанкционированный доступ&amp;nbsp;&lt;/div&gt;&lt;div style=&quot;padding-top: 0px;&quot;&gt;из-за проблем с авторизацией&lt;/div&gt;&lt;div style=&quot;padding-top: 0px;&quot;&gt;- технические сбои при&amp;nbsp;&lt;/div&gt;&lt;div style=&quot;padding-top: 0px;&quot;&gt;форматировании/сериализации/передаче&lt;/div&gt;" style="rounded=1;fillColor=#e1d5e7;strokeColor=#9673a6;strokeWidth=3;shadow=0;html=1;align=left;" vertex="1" parent="1">
          <mxGeometry x="-395.62" y="2424" width="290" height="143.5" as="geometry" />
        </mxCell>
        <mxCell id="ozscDCPrVm2I_ryFBJd1-1653" value="&lt;div&gt;&lt;b&gt;Риск потери данных&amp;nbsp;&lt;/b&gt;&lt;b style=&quot;background-color: transparent; color: light-dark(rgb(0, 0, 0), rgb(255, 255, 255));&quot;&gt;(доступность по ISO)&lt;/b&gt;&lt;/div&gt;&lt;div&gt;&lt;span style=&quot;background-color: transparent; color: light-dark(rgb(0, 0, 0), rgb(255, 255, 255));&quot;&gt;Качественная оценка - некритический&lt;/span&gt;&lt;/div&gt;&lt;div&gt;&lt;span style=&quot;background-color: transparent; color: light-dark(rgb(0, 0, 0), rgb(255, 255, 255));&quot;&gt;-&amp;nbsp;&lt;/span&gt;&lt;span style=&quot;background-color: transparent; color: light-dark(rgb(0, 0, 0), rgb(255, 255, 255));&quot;&gt;проблемы с идентификацией клиента&lt;/span&gt;&lt;span style=&quot;background-color: transparent; color: light-dark(rgb(0, 0, 0), rgb(255, 255, 255));&quot;&gt;&amp;nbsp;&lt;/span&gt;&lt;/div&gt;&lt;div&gt;&lt;span style=&quot;background-color: transparent; color: light-dark(rgb(0, 0, 0), rgb(255, 255, 255));&quot;&gt;Вероятность - средняя&lt;/span&gt;&lt;/div&gt;&lt;div&gt;&lt;span style=&quot;background-color: transparent; color: light-dark(rgb(0, 0, 0), rgb(255, 255, 255));&quot;&gt;- DDoS атаки&lt;/span&gt;&lt;/div&gt;&lt;div&gt;&lt;div style=&quot;padding-top: 0px;&quot;&gt;- несанкционированного доступа&amp;nbsp;&lt;/div&gt;&lt;div style=&quot;padding-top: 0px;&quot;&gt;из-за проблем с авторизацией&lt;/div&gt;&lt;/div&gt;&lt;div&gt;&lt;span style=&quot;background-color: transparent; color: light-dark(rgb(0, 0, 0), rgb(255, 255, 255));&quot;&gt;&lt;br&gt;&lt;/span&gt;&lt;/div&gt;" style="rounded=1;fillColor=#e1d5e7;strokeColor=#9673a6;strokeWidth=3;shadow=0;html=1;align=left;" vertex="1" parent="1">
          <mxGeometry x="-399.75" y="2576" width="290" height="130" as="geometry" />
        </mxCell>
        <mxCell id="ozscDCPrVm2I_ryFBJd1-1654" value="&lt;div&gt;&lt;b&gt;Риск утечки&lt;span style=&quot;background-color: transparent; color: light-dark(rgb(0, 0, 0), rgb(255, 255, 255));&quot;&gt;&amp;nbsp;&lt;/span&gt;&lt;/b&gt;&lt;b style=&quot;background-color: transparent; color: light-dark(rgb(0, 0, 0), rgb(255, 255, 255));&quot;&gt;(утечка по ISO)&lt;/b&gt;&lt;/div&gt;&lt;div&gt;Качественная оценка - критический&lt;/div&gt;&lt;div&gt;- ФЗ-152&amp;nbsp;&lt;/div&gt;&lt;div&gt;&lt;span style=&quot;background-color: transparent; color: light-dark(rgb(0, 0, 0), rgb(255, 255, 255));&quot;&gt;Вероятность - средняя&lt;/span&gt;&lt;/div&gt;" style="rounded=1;fillColor=#e1d5e7;strokeColor=#9673a6;strokeWidth=3;shadow=0;html=1;align=left;" vertex="1" parent="1">
          <mxGeometry x="-395.62" y="2345" width="290" height="70" as="geometry" />
        </mxCell>
        <mxCell id="ozscDCPrVm2I_ryFBJd1-1655" value="&lt;div&gt;информация о последней транзакции моет&amp;nbsp;&lt;/div&gt;&lt;div&gt;&lt;span style=&quot;background-color: transparent; color: light-dark(rgb(0, 0, 0), rgb(255, 255, 255));&quot;&gt;быть использована при смене пароля к карте&lt;/span&gt;&lt;span style=&quot;background-color: transparent; color: light-dark(rgb(0, 0, 0), rgb(255, 255, 255));&quot;&gt;&amp;nbsp;=&amp;gt;&amp;nbsp;&lt;/span&gt;&lt;/div&gt;&lt;div&gt;&lt;span style=&quot;background-color: transparent; color: light-dark(rgb(0, 0, 0), rgb(255, 255, 255));&quot;&gt;репутационные, юридические последствия&lt;/span&gt;&lt;br&gt;&lt;/div&gt;" style="rounded=1;strokeWidth=3;shadow=0;html=1;align=left;" vertex="1" parent="1">
          <mxGeometry x="-814.13" y="2345" width="401" height="60" as="geometry" />
        </mxCell>
        <mxCell id="ozscDCPrVm2I_ryFBJd1-1656" value="&lt;div&gt;проблемы с идентификацией, которые можно устранить&lt;/div&gt;" style="rounded=1;strokeWidth=3;shadow=0;html=1;align=left;" vertex="1" parent="1">
          <mxGeometry x="-814.13" y="2434" width="401" height="20" as="geometry" />
        </mxCell>
        <mxCell id="ozscDCPrVm2I_ryFBJd1-1657" value="проблемы с идентификацией, которые можно устранить" style="rounded=1;strokeWidth=3;shadow=0;html=1;align=left;" vertex="1" parent="1">
          <mxGeometry x="-814.13" y="2576" width="401" height="20" as="geometry" />
        </mxCell>
        <mxCell id="ozscDCPrVm2I_ryFBJd1-1658" value="" style="edgeStyle=none;endArrow=none;strokeWidth=3;strokeColor=#A29DC5;html=1;entryX=1;entryY=0.25;entryDx=0;entryDy=0;exitX=0;exitY=0.5;exitDx=0;exitDy=0;" edge="1" parent="1" source="ozscDCPrVm2I_ryFBJd1-1650" target="ozscDCPrVm2I_ryFBJd1-1654">
          <mxGeometry x="-1498" y="-303.5" width="100" height="100" as="geometry">
            <mxPoint x="297" y="2100" as="sourcePoint" />
            <mxPoint x="40" y="2325" as="targetPoint" />
          </mxGeometry>
        </mxCell>
        <mxCell id="ozscDCPrVm2I_ryFBJd1-1659" value="" style="edgeStyle=none;endArrow=none;strokeWidth=3;strokeColor=#A29DC5;html=1;entryX=1;entryY=0.25;entryDx=0;entryDy=0;exitX=0;exitY=1;exitDx=0;exitDy=0;" edge="1" parent="1" source="ozscDCPrVm2I_ryFBJd1-1650" target="ozscDCPrVm2I_ryFBJd1-1652">
          <mxGeometry x="-1498" y="-303.5" width="100" height="100" as="geometry">
            <mxPoint x="392" y="2690" as="sourcePoint" />
            <mxPoint x="140" y="2692" as="targetPoint" />
          </mxGeometry>
        </mxCell>
        <mxCell id="ozscDCPrVm2I_ryFBJd1-1660" value="" style="edgeStyle=none;endArrow=none;strokeWidth=3;strokeColor=#A29DC5;html=1;entryX=1;entryY=0.25;entryDx=0;entryDy=0;exitX=0.25;exitY=1;exitDx=0;exitDy=0;" edge="1" parent="1" source="ozscDCPrVm2I_ryFBJd1-1650" target="ozscDCPrVm2I_ryFBJd1-1653">
          <mxGeometry x="-1498" y="-303.5" width="100" height="100" as="geometry">
            <mxPoint x="302" y="2560" as="sourcePoint" />
            <mxPoint x="50" y="2562" as="targetPoint" />
          </mxGeometry>
        </mxCell>
        <mxCell id="ozscDCPrVm2I_ryFBJd1-1661" value="" style="edgeStyle=orthogonalEdgeStyle;endArrow=none;strokeWidth=3;strokeColor=#A29DC5;html=1;entryX=1;entryY=0.25;entryDx=0;entryDy=0;exitX=0.5;exitY=1;exitDx=0;exitDy=0;" edge="1" parent="1" source="1516" target="ozscDCPrVm2I_ryFBJd1-1650">
          <mxGeometry x="-1498" y="-303.5" width="100" height="100" as="geometry">
            <mxPoint x="632" y="2310" as="sourcePoint" />
            <mxPoint x="380" y="2312" as="targetPoint" />
          </mxGeometry>
        </mxCell>
        <mxCell id="ozscDCPrVm2I_ryFBJd1-1662" value="Учетные записи,&amp;nbsp;&lt;div&gt;пароли,&amp;nbsp;&lt;/div&gt;&lt;div&gt;сертификаты,&amp;nbsp;&lt;/div&gt;&lt;div&gt;ключи шифровани&lt;/div&gt;" style="rounded=1;fillColor=#f08e81;strokeColor=none;strokeWidth=3;shadow=0;html=1;fontColor=#FFFFFF;align=left;" vertex="1" parent="1">
          <mxGeometry x="1780" y="1890" width="200" height="80" as="geometry" />
        </mxCell>
        <mxCell id="ozscDCPrVm2I_ryFBJd1-1663" value="" style="edgeStyle=orthogonalEdgeStyle;endArrow=none;strokeWidth=3;strokeColor=#F08E81;html=1;entryX=0;entryY=0.25;entryDx=0;entryDy=0;exitX=0;exitY=1;exitDx=0;exitDy=0;" edge="1" parent="1" source="1356" target="ozscDCPrVm2I_ryFBJd1-1662">
          <mxGeometry x="188.5" y="51.5" width="100" height="100" as="geometry">
            <mxPoint x="1560" y="1580" as="sourcePoint" />
            <mxPoint x="1873" y="2130" as="targetPoint" />
            <Array as="points">
              <mxPoint x="1578" y="1910" />
            </Array>
          </mxGeometry>
        </mxCell>
        <mxCell id="ozscDCPrVm2I_ryFBJd1-1665" value="&lt;div style=&quot;padding-top: 0px;&quot;&gt;&lt;b&gt;Риск искажения данных (целостность по ISO)&lt;/b&gt;&lt;/div&gt;&lt;div style=&quot;padding-top: 0px;&quot;&gt;Качественная оценка - критический:&lt;/div&gt;&lt;div style=&quot;padding-top: 0px;&quot;&gt;- может полиять на юридические отношения&amp;nbsp;&lt;/div&gt;&lt;div style=&quot;padding-top: 0px;&quot;&gt;с клиентом&amp;nbsp;&lt;/div&gt;&lt;div style=&quot;padding-top: 0px;&quot;&gt;Вероятность - низкая:&amp;nbsp;&lt;/div&gt;&lt;div style=&quot;padding-top: 0px;&quot;&gt;- злонамеренная подмена технически сложна&amp;nbsp;&lt;/div&gt;&lt;div style=&quot;padding-top: 0px;&quot;&gt;- несанкционированный доступ&amp;nbsp;&lt;/div&gt;&lt;div style=&quot;padding-top: 0px;&quot;&gt;из-за проблем с авторизацией&lt;/div&gt;&lt;div style=&quot;padding-top: 0px;&quot;&gt;- технические сбои при&amp;nbsp;&lt;/div&gt;&lt;div style=&quot;padding-top: 0px;&quot;&gt;форматировании/сериализации/передаче&lt;/div&gt;" style="rounded=1;fillColor=#dae8fc;strokeColor=#6c8ebf;strokeWidth=3;shadow=0;html=1;align=left;" vertex="1" parent="1">
          <mxGeometry x="-381.25" y="128.25" width="287.5" height="143.5" as="geometry" />
        </mxCell>
        <mxCell id="ozscDCPrVm2I_ryFBJd1-1669" value="&lt;div&gt;Пользователь будет введен в заблуждение по поводу условий =&amp;gt;&lt;/div&gt;&lt;div&gt;финансовые, репутационные, правовые издержки&lt;/div&gt;" style="rounded=1;strokeWidth=3;shadow=0;html=1;align=left;" vertex="1" parent="1">
          <mxGeometry x="-790" y="128.25" width="400" height="40" as="geometry" />
        </mxCell>
        <mxCell id="ozscDCPrVm2I_ryFBJd1-1671" value="" style="edgeStyle=none;endArrow=none;strokeWidth=3;strokeColor=#64BBE2;html=1;exitX=0;exitY=0.5;exitDx=0;exitDy=0;entryX=1;entryY=0.5;entryDx=0;entryDy=0;" edge="1" parent="1" source="1369" target="ozscDCPrVm2I_ryFBJd1-1665">
          <mxGeometry x="-221.5" y="56.5" width="100" height="100" as="geometry">
            <mxPoint x="264" y="629" as="sourcePoint" />
            <mxPoint x="20" y="380" as="targetPoint" />
          </mxGeometry>
        </mxCell>
        <mxCell id="ozscDCPrVm2I_ryFBJd1-1672" value="&lt;div style=&quot;padding-top: 0px;&quot;&gt;&lt;b&gt;Риск потери данных (целостность по ISO)&lt;/b&gt;&lt;/div&gt;&lt;div style=&quot;padding-top: 0px;&quot;&gt;Качественная оценка - некритичный:&lt;/div&gt;&lt;div style=&quot;padding-top: 0px;&quot;&gt;- задержка бизнес-процессов&lt;span style=&quot;background-color: transparent; color: light-dark(rgb(0, 0, 0), rgb(255, 255, 255));&quot;&gt;&amp;nbsp;&lt;/span&gt;&lt;/div&gt;&lt;div style=&quot;padding-top: 0px;&quot;&gt;Вероятность - низкая:&amp;nbsp;&lt;/div&gt;&lt;div style=&quot;padding-top: 0px;&quot;&gt;- злонамеренная подмена технически сложна&amp;nbsp;&lt;/div&gt;&lt;div style=&quot;padding-top: 0px;&quot;&gt;- несанкционированный доступ&amp;nbsp;&lt;/div&gt;&lt;div style=&quot;padding-top: 0px;&quot;&gt;из-за проблем с авторизацией&lt;/div&gt;&lt;div style=&quot;padding-top: 0px;&quot;&gt;- технические сбои при&amp;nbsp;&lt;/div&gt;&lt;div style=&quot;padding-top: 0px;&quot;&gt;форматировании/сериализации/передаче&lt;/div&gt;" style="rounded=1;fillColor=#dae8fc;strokeColor=#6c8ebf;strokeWidth=3;shadow=0;html=1;align=left;" vertex="1" parent="1">
          <mxGeometry x="-378.75" y="280" width="287.5" height="150" as="geometry" />
        </mxCell>
        <mxCell id="ozscDCPrVm2I_ryFBJd1-1673" value="&lt;div&gt;Задержка регистрации новых пользователей =&amp;gt;&lt;/div&gt;&lt;div&gt;незначительные финансовые и репутационные последствия&lt;/div&gt;" style="rounded=1;strokeWidth=3;shadow=0;html=1;align=left;" vertex="1" parent="1">
          <mxGeometry x="-789" y="290" width="400" height="40" as="geometry" />
        </mxCell>
        <mxCell id="ozscDCPrVm2I_ryFBJd1-1674" value="&lt;div style=&quot;color: rgb(0, 0, 0);&quot;&gt;&lt;b&gt;Риск утечки&lt;span style=&quot;background-color: transparent; color: light-dark(rgb(0, 0, 0), rgb(255, 255, 255));&quot;&gt;&amp;nbsp;&lt;/span&gt;&lt;/b&gt;&lt;b style=&quot;background-color: transparent; color: light-dark(rgb(0, 0, 0), rgb(255, 255, 255));&quot;&gt;(утечка по ISO)&lt;/b&gt;&lt;/div&gt;&lt;div style=&quot;color: rgb(0, 0, 0);&quot;&gt;Качественная оценка - критический&lt;/div&gt;&lt;div style=&quot;color: rgb(0, 0, 0);&quot;&gt;- может повлечь юридические последствия&amp;nbsp;&lt;/div&gt;&lt;div style=&quot;color: rgb(0, 0, 0);&quot;&gt;Вероятность - низкая:&amp;nbsp;&lt;/div&gt;&lt;div style=&quot;color: rgb(0, 0, 0);&quot;&gt;- технически сложно&lt;/div&gt;" style="rounded=1;fillColor=#f8cecc;strokeColor=#b85450;strokeWidth=3;shadow=0;html=1;align=left;" vertex="1" parent="1">
          <mxGeometry x="2010" y="1890" width="290" height="65" as="geometry" />
        </mxCell>
        <mxCell id="ozscDCPrVm2I_ryFBJd1-1675" value="&lt;div style=&quot;padding-top: 0px;&quot;&gt;&lt;b&gt;Риск искажения данных (целостность по ISO)&lt;/b&gt;&lt;/div&gt;&lt;div style=&quot;padding-top: 0px;&quot;&gt;Качественная оценка - критический:&lt;/div&gt;&lt;div style=&quot;padding-top: 0px;&quot;&gt;- может повлечь юридические последствия&amp;nbsp;&lt;/div&gt;&lt;div style=&quot;padding-top: 0px;&quot;&gt;клиентов&lt;/div&gt;&lt;div style=&quot;padding-top: 0px;&quot;&gt;Вероятность - низкая:&amp;nbsp;&lt;/div&gt;&lt;div style=&quot;padding-top: 0px;&quot;&gt;- злонамеренная подмена технически сложна&amp;nbsp;&lt;/div&gt;&lt;div style=&quot;padding-top: 0px;&quot;&gt;- несанкционированный доступ&amp;nbsp;&lt;/div&gt;&lt;div style=&quot;padding-top: 0px;&quot;&gt;из-за проблем с авторизацией&lt;/div&gt;&lt;div style=&quot;padding-top: 0px;&quot;&gt;&lt;br&gt;&lt;/div&gt;" style="rounded=1;fillColor=#f8cecc;strokeColor=#b85450;strokeWidth=3;shadow=0;html=1;align=left;" vertex="1" parent="1">
          <mxGeometry x="2010" y="1963.25" width="287.5" height="126.75" as="geometry" />
        </mxCell>
        <mxCell id="ozscDCPrVm2I_ryFBJd1-1676" value="&lt;div&gt;&lt;b&gt;Риск потери данных&amp;nbsp;&lt;/b&gt;&lt;b style=&quot;background-color: transparent; color: light-dark(rgb(0, 0, 0), rgb(255, 255, 255));&quot;&gt;(доступность по ISO)&lt;/b&gt;&lt;/div&gt;&lt;div&gt;&lt;span style=&quot;background-color: transparent; color: light-dark(rgb(0, 0, 0), rgb(255, 255, 255));&quot;&gt;Качественная оценка - значительный&lt;/span&gt;&lt;/div&gt;&lt;div&gt;&lt;span style=&quot;background-color: transparent; color: light-dark(rgb(0, 0, 0), rgb(255, 255, 255));&quot;&gt;- сбой приведет к ощутимым задержкам&amp;nbsp;&lt;/span&gt;&lt;/div&gt;&lt;div&gt;&lt;span style=&quot;background-color: transparent; color: light-dark(rgb(0, 0, 0), rgb(255, 255, 255));&quot;&gt;в бизнес-процессах&amp;nbsp;&lt;/span&gt;&lt;/div&gt;&lt;div&gt;&lt;span style=&quot;background-color: transparent; color: light-dark(rgb(0, 0, 0), rgb(255, 255, 255));&quot;&gt;Вероятность - средняя&lt;/span&gt;&lt;/div&gt;&lt;div&gt;&lt;span style=&quot;background-color: transparent; color: light-dark(rgb(0, 0, 0), rgb(255, 255, 255));&quot;&gt;- DDoS атаки&lt;/span&gt;&lt;/div&gt;&lt;div&gt;&lt;div style=&quot;padding-top: 0px;&quot;&gt;- несанкционированного доступа&amp;nbsp;&lt;/div&gt;&lt;div style=&quot;padding-top: 0px;&quot;&gt;из-за проблем с авторизацией&lt;/div&gt;&lt;/div&gt;&lt;div&gt;&lt;span style=&quot;background-color: transparent; color: light-dark(rgb(0, 0, 0), rgb(255, 255, 255));&quot;&gt;&lt;br&gt;&lt;/span&gt;&lt;/div&gt;" style="rounded=1;fillColor=#f8cecc;strokeColor=#b85450;strokeWidth=3;shadow=0;html=1;align=left;" vertex="1" parent="1">
          <mxGeometry x="2010.63" y="2100" width="286.25" height="130" as="geometry" />
        </mxCell>
        <mxCell id="ozscDCPrVm2I_ryFBJd1-1677" value="&lt;div&gt;Утечка может привести к взлому системы =&amp;gt;&lt;/div&gt;&lt;div&gt;&amp;nbsp;&lt;span style=&quot;background-color: transparent; color: light-dark(rgb(0, 0, 0), rgb(255, 255, 255));&quot;&gt;серьезные репутационные, финансовые и юридические&amp;nbsp;&lt;/span&gt;&lt;/div&gt;&lt;div&gt;&lt;span style=&quot;background-color: transparent; color: light-dark(rgb(0, 0, 0), rgb(255, 255, 255));&quot;&gt;последствия&lt;br&gt;&lt;/span&gt;&lt;/div&gt;" style="rounded=1;strokeWidth=3;shadow=0;html=1;align=left;" vertex="1" parent="1">
          <mxGeometry x="2311.25" y="1892.25" width="400" height="47.75" as="geometry" />
        </mxCell>
        <mxCell id="ozscDCPrVm2I_ryFBJd1-1678" value="&lt;div&gt;&lt;div&gt;Утечка может привести к взлому системы =&amp;gt;&lt;/div&gt;&lt;div&gt;&amp;nbsp;&lt;span style=&quot;background-color: transparent; color: light-dark(rgb(0, 0, 0), rgb(255, 255, 255));&quot;&gt;серьезные репутационные, финансовые и юридические&amp;nbsp;&lt;/span&gt;&lt;/div&gt;&lt;div&gt;&lt;span style=&quot;background-color: transparent; color: light-dark(rgb(0, 0, 0), rgb(255, 255, 255));&quot;&gt;последствия&lt;/span&gt;&lt;/div&gt;&lt;/div&gt;" style="rounded=1;strokeWidth=3;shadow=0;html=1;align=left;" vertex="1" parent="1">
          <mxGeometry x="2311.25" y="1970" width="400" height="47.75" as="geometry" />
        </mxCell>
        <mxCell id="ozscDCPrVm2I_ryFBJd1-1679" value="&lt;div&gt;Временная блокировка функционла системы&lt;/div&gt;" style="rounded=1;strokeWidth=3;shadow=0;html=1;align=left;" vertex="1" parent="1">
          <mxGeometry x="2312.25" y="2102.25" width="400" height="47.75" as="geometry" />
        </mxCell>
        <mxCell id="ozscDCPrVm2I_ryFBJd1-1680" value="" style="endArrow=none;strokeWidth=3;strokeColor=#F08E81;html=1;exitX=1;exitY=0.25;exitDx=0;exitDy=0;entryX=0;entryY=0.25;entryDx=0;entryDy=0;" edge="1" parent="1" source="ozscDCPrVm2I_ryFBJd1-1662" target="ozscDCPrVm2I_ryFBJd1-1674">
          <mxGeometry x="188.5" y="51.5" width="100" height="100" as="geometry">
            <mxPoint x="1670" y="2030" as="sourcePoint" />
            <mxPoint x="1920" y="2250" as="targetPoint" />
          </mxGeometry>
        </mxCell>
        <mxCell id="ozscDCPrVm2I_ryFBJd1-1681" value="" style="endArrow=none;strokeWidth=3;strokeColor=#F08E81;html=1;exitX=1;exitY=0.5;exitDx=0;exitDy=0;entryX=0;entryY=0.25;entryDx=0;entryDy=0;" edge="1" parent="1" source="ozscDCPrVm2I_ryFBJd1-1662" target="ozscDCPrVm2I_ryFBJd1-1675">
          <mxGeometry x="188.5" y="51.5" width="100" height="100" as="geometry">
            <mxPoint x="1950" y="1894" as="sourcePoint" />
            <mxPoint x="1980" y="1890" as="targetPoint" />
          </mxGeometry>
        </mxCell>
        <mxCell id="ozscDCPrVm2I_ryFBJd1-1682" value="" style="endArrow=none;strokeWidth=3;strokeColor=#F08E81;html=1;exitX=1;exitY=1;exitDx=0;exitDy=0;entryX=0;entryY=0.25;entryDx=0;entryDy=0;" edge="1" parent="1" source="ozscDCPrVm2I_ryFBJd1-1662" target="ozscDCPrVm2I_ryFBJd1-1676">
          <mxGeometry x="188.5" y="51.5" width="100" height="100" as="geometry">
            <mxPoint x="2000" y="2024" as="sourcePoint" />
            <mxPoint x="2030" y="2020" as="targetPoint" />
          </mxGeometry>
        </mxCell>
      </root>
    </mxGraphModel>
  </diagram>
</mxfile>
